<?xml version="1.0" encoding="UTF-8" standalone="no"?><svg xmlns="http://www.w3.org/2000/svg" xmlns:xlink="http://www.w3.org/1999/xlink" contentStyleType="text/css" height="487px" preserveAspectRatio="none" style="width:666px;height:487px;background:#FFFFFF;" version="1.1" viewBox="0 0 666 487" width="666px" zoomAndPan="magnify"><defs/><g><!--MD5=[df3771a4751325c6d94458f5b09c1010]
class ProjectReportTemplate--><g id="elem_ProjectReportTemplate"><rect codeLine="5" fill="#F1F1F1" height="113.1875" id="ProjectReportTemplate" rx="2.5" ry="2.5" style="stroke:#181818;stroke-width:0.5;" width="254" x="405" y="7"/><ellipse cx="442.05" cy="23" fill="#ADD1B2" rx="11" ry="11" style="stroke:#181818;stroke-width:1.0;"/><path d="M444.3938,18.6719 C443.4563,18.2344 442.8625,18.0938 441.9875,18.0938 C439.3625,18.0938 437.3625,20.1719 437.3625,22.8906 L437.3625,24.0156 C437.3625,26.5938 439.4719,28.4844 442.3625,28.4844 C443.5813,28.4844 444.7375,28.1875 445.4875,27.6406 C446.0656,27.2344 446.3938,26.7813 446.3938,26.3906 C446.3938,25.9375 446.0031,25.5469 445.5344,25.5469 C445.3156,25.5469 445.1125,25.625 444.925,25.8125 C444.4719,26.2969 444.4719,26.2969 444.2844,26.3906 C443.8625,26.6563 443.175,26.7813 442.4094,26.7813 C440.3625,26.7813 439.0656,25.6875 439.0656,23.9844 L439.0656,22.8906 C439.0656,21.1094 440.3156,19.7969 442.05,19.7969 C442.6281,19.7969 443.2375,19.9531 443.7063,20.2031 C444.1906,20.4844 444.3625,20.7031 444.4563,21.1094 C444.5188,21.5156 444.55,21.6406 444.6906,21.7656 C444.8313,21.9063 445.0656,22.0156 445.2844,22.0156 C445.55,22.0156 445.8156,21.875 445.9875,21.6563 C446.0969,21.5 446.1281,21.3125 446.1281,20.8906 L446.1281,19.4688 C446.1281,19.0313 446.1125,18.9063 446.0188,18.75 C445.8625,18.4844 445.5813,18.3438 445.2844,18.3438 C444.9875,18.3438 444.7844,18.4375 444.5656,18.75 L444.3938,18.6719 Z " fill="#000000"/><text fill="#000000" font-family="sans-serif" font-size="14" lengthAdjust="spacing" textLength="173" x="460.95" y="27.8467">ProjectReportTemplate</text><line style="stroke:#181818;stroke-width:0.5;" x1="406" x2="658" y1="39" y2="39"/><rect fill="none" height="6" style="stroke:#C82930;stroke-width:1.0;" width="6" x="413" y="47"/><text fill="#000000" font-family="sans-serif" font-size="14" lengthAdjust="spacing" textLength="205" x="425" y="55.9951">reportName: InputTemplate</text><rect fill="none" height="6" style="stroke:#C82930;stroke-width:1.0;" width="6" x="413" y="63.2969"/><text fill="#000000" font-family="sans-serif" font-size="14" lengthAdjust="spacing" textLength="179" x="425" y="72.292">reportID: InputTemplate</text><rect fill="none" height="6" style="stroke:#C82930;stroke-width:1.0;" width="6" x="413" y="79.5938"/><text fill="#000000" font-family="sans-serif" font-size="14" lengthAdjust="spacing" textLength="208" x="425" y="88.5889">reportGroup: InputTemplate</text><rect fill="none" height="6" style="stroke:#C82930;stroke-width:1.0;" width="6" x="413" y="95.8906"/><text fill="#000000" font-family="sans-serif" font-size="14" lengthAdjust="spacing" textLength="228" x="425" y="104.8857">sections: Map&lt;String, Section&gt;</text><line style="stroke:#181818;stroke-width:0.5;" x1="406" x2="658" y1="112.1875" y2="112.1875"/></g><!--MD5=[09a53695e98d4f26e7a054522080af08]
class Section--><g id="elem_Section"><rect codeLine="11" fill="#F1F1F1" height="64.2969" id="Section" rx="2.5" ry="2.5" style="stroke:#181818;stroke-width:0.5;" width="250" x="7" y="165"/><ellipse cx="100.25" cy="181" fill="#ADD1B2" rx="11" ry="11" style="stroke:#181818;stroke-width:1.0;"/><path d="M102.5938,176.6719 C101.6563,176.2344 101.0625,176.0938 100.1875,176.0938 C97.5625,176.0938 95.5625,178.1719 95.5625,180.8906 L95.5625,182.0156 C95.5625,184.5938 97.6719,186.4844 100.5625,186.4844 C101.7813,186.4844 102.9375,186.1875 103.6875,185.6406 C104.2656,185.2344 104.5938,184.7813 104.5938,184.3906 C104.5938,183.9375 104.2031,183.5469 103.7344,183.5469 C103.5156,183.5469 103.3125,183.625 103.125,183.8125 C102.6719,184.2969 102.6719,184.2969 102.4844,184.3906 C102.0625,184.6563 101.375,184.7813 100.6094,184.7813 C98.5625,184.7813 97.2656,183.6875 97.2656,181.9844 L97.2656,180.8906 C97.2656,179.1094 98.5156,177.7969 100.25,177.7969 C100.8281,177.7969 101.4375,177.9531 101.9063,178.2031 C102.3906,178.4844 102.5625,178.7031 102.6563,179.1094 C102.7188,179.5156 102.75,179.6406 102.8906,179.7656 C103.0313,179.9063 103.2656,180.0156 103.4844,180.0156 C103.75,180.0156 104.0156,179.875 104.1875,179.6563 C104.2969,179.5 104.3281,179.3125 104.3281,178.8906 L104.3281,177.4688 C104.3281,177.0313 104.3125,176.9063 104.2188,176.75 C104.0625,176.4844 103.7813,176.3438 103.4844,176.3438 C103.1875,176.3438 102.9844,176.4375 102.7656,176.75 L102.5938,176.6719 Z " fill="#000000"/><text fill="#000000" font-family="sans-serif" font-size="14" lengthAdjust="spacing" textLength="55" x="120.75" y="185.8467">Section</text><line style="stroke:#181818;stroke-width:0.5;" x1="8" x2="256" y1="197" y2="197"/><rect fill="none" height="6" style="stroke:#C82930;stroke-width:1.0;" width="6" x="15" y="205"/><text fill="#000000" font-family="sans-serif" font-size="14" lengthAdjust="spacing" textLength="224" x="27" y="213.9951">fields: Map&lt;String, BaseInput&gt;</text><line style="stroke:#181818;stroke-width:0.5;" x1="8" x2="256" y1="221.2969" y2="221.2969"/></g><!--MD5=[dbc8686727f9c245d23b6d04ab358f14]
class BaseInput--><g id="elem_BaseInput"><rect codeLine="14" fill="#F1F1F1" height="96.8906" id="BaseInput" rx="2.5" ry="2.5" style="stroke:#181818;stroke-width:0.5;" width="183" x="56.5" y="274"/><ellipse cx="108.25" cy="290" fill="#A9DCDF" rx="11" ry="11" style="stroke:#181818;stroke-width:1.0;"/><path d="M110.3281,291.8125 L110.7188,292.7969 L110.3281,292.7969 C109.875,292.7969 109.7656,292.8125 109.6094,292.9219 C109.3594,293.0781 109.2031,293.3594 109.2031,293.6563 C109.2031,293.9219 109.3438,294.1719 109.5625,294.3281 C109.7031,294.4531 109.9063,294.5 110.3281,294.5 L112.6875,294.5 C113.0469,294.5 113.2656,294.4688 113.4063,294.375 C113.6563,294.2344 113.8125,293.9375 113.8125,293.6563 C113.8125,293.375 113.6719,293.125 113.4531,292.9688 C113.2813,292.8281 113.125,292.7969 112.6563,292.7969 L109.2656,284.5938 L105.5938,284.5938 C105.1406,284.5938 105.0156,284.6094 104.8594,284.7031 C104.6094,284.875 104.4531,285.1563 104.4531,285.4375 C104.4531,285.7188 104.5938,285.9688 104.8125,286.1406 C104.9844,286.25 105.1563,286.2813 105.5938,286.2813 L106.6719,286.2813 L104.0313,292.7969 C103.6094,292.7969 103.4531,292.8125 103.2969,292.9219 C103.0469,293.0781 102.8906,293.3594 102.8906,293.6563 C102.8906,294.2188 103.2656,294.5 104.0156,294.5 L106.2813,294.5 C106.6406,294.5 106.8594,294.4688 106.9844,294.375 C107.25,294.2344 107.3906,293.9375 107.3906,293.6563 C107.3906,293.375 107.2656,293.125 107.0469,292.9531 C106.875,292.8281 106.7344,292.7969 106.2813,292.7969 L105.8906,292.7969 L106.2813,291.8125 L110.3281,291.8125 Z M109.625,290.1094 L106.9531,290.1094 L108.2969,286.8438 L109.625,290.1094 Z " fill="#000000"/><text fill="#000000" font-family="sans-serif" font-size="14" font-style="italic" lengthAdjust="spacing" textLength="71" x="128.75" y="294.8467">BaseInput</text><line style="stroke:#181818;stroke-width:0.5;" x1="57.5" x2="238.5" y1="306" y2="306"/><rect fill="none" height="6" style="stroke:#C82930;stroke-width:1.0;" width="6" x="64.5" y="314"/><text fill="#000000" font-family="sans-serif" font-size="14" lengthAdjust="spacing" textLength="111" x="76.5" y="322.9951">type: Datatype</text><rect fill="none" height="6" style="stroke:#C82930;stroke-width:1.0;" width="6" x="64.5" y="330.2969"/><text fill="#000000" font-family="sans-serif" font-size="14" lengthAdjust="spacing" textLength="157" x="76.5" y="339.292">inputType: InputType</text><rect fill="none" height="6" style="stroke:#C82930;stroke-width:1.0;" width="6" x="64.5" y="346.5938"/><text fill="#000000" font-family="sans-serif" font-size="14" lengthAdjust="spacing" textLength="142" x="76.5" y="355.5889">isRequired: boolean</text><line style="stroke:#181818;stroke-width:0.5;" x1="57.5" x2="238.5" y1="362.8906" y2="362.8906"/></g><!--MD5=[ea30a5cddf8eeffb9b4fc4a0b2411a3e]
class InputTemplate--><g id="elem_InputTemplate"><rect codeLine="19" fill="#F1F1F1" height="64.2969" id="InputTemplate" rx="2.5" ry="2.5" style="stroke:#181818;stroke-width:0.5;" width="218" x="431" y="416"/><ellipse cx="481.75" cy="432" fill="#ADD1B2" rx="11" ry="11" style="stroke:#181818;stroke-width:1.0;"/><path d="M484.0938,427.6719 C483.1563,427.2344 482.5625,427.0938 481.6875,427.0938 C479.0625,427.0938 477.0625,429.1719 477.0625,431.8906 L477.0625,433.0156 C477.0625,435.5938 479.1719,437.4844 482.0625,437.4844 C483.2813,437.4844 484.4375,437.1875 485.1875,436.6406 C485.7656,436.2344 486.0938,435.7813 486.0938,435.3906 C486.0938,434.9375 485.7031,434.5469 485.2344,434.5469 C485.0156,434.5469 484.8125,434.625 484.625,434.8125 C484.1719,435.2969 484.1719,435.2969 483.9844,435.3906 C483.5625,435.6563 482.875,435.7813 482.1094,435.7813 C480.0625,435.7813 478.7656,434.6875 478.7656,432.9844 L478.7656,431.8906 C478.7656,430.1094 480.0156,428.7969 481.75,428.7969 C482.3281,428.7969 482.9375,428.9531 483.4063,429.2031 C483.8906,429.4844 484.0625,429.7031 484.1563,430.1094 C484.2188,430.5156 484.25,430.6406 484.3906,430.7656 C484.5313,430.9063 484.7656,431.0156 484.9844,431.0156 C485.25,431.0156 485.5156,430.875 485.6875,430.6563 C485.7969,430.5 485.8281,430.3125 485.8281,429.8906 L485.8281,428.4688 C485.8281,428.0313 485.8125,427.9063 485.7188,427.75 C485.5625,427.4844 485.2813,427.3438 484.9844,427.3438 C484.6875,427.3438 484.4844,427.4375 484.2656,427.75 L484.0938,427.6719 Z " fill="#000000"/><text fill="#000000" font-family="sans-serif" font-size="14" lengthAdjust="spacing" textLength="108" x="502.25" y="436.8467">InputTemplate</text><line style="stroke:#181818;stroke-width:0.5;" x1="432" x2="648" y1="448" y2="448"/><text fill="#000000" font-family="sans-serif" font-size="14" lengthAdjust="spacing" textLength="206" x="437" y="464.9951">allowedValues: List&lt;Object&gt;</text><line style="stroke:#181818;stroke-width:0.5;" x1="432" x2="648" y1="472.2969" y2="472.2969"/></g><!--MD5=[2e7a7522d4bba732a24e5ca3c510e28b]
link ProjectReportTemplate to InputTemplate--><g id="link_ProjectReportTemplate_InputTemplate"><path codeLine="22" d="M540,120.234 C540,202.122 540,350.749 540,415.9202 " fill="none" id="ProjectReportTemplate-InputTemplate" style="stroke:#181818;stroke-width:1.0;"/><text fill="#000000" font-family="sans-serif" font-size="13" lengthAdjust="spacing" textLength="8" x="532.4875" y="140.1261">1</text><text fill="#000000" font-family="sans-serif" font-size="13" lengthAdjust="spacing" textLength="23" x="514.6281" y="404.8068">1..*</text></g><!--MD5=[9dc4e180b226222490866af84be875bf]
reverse link BaseInput to InputTemplate--><g id="link_BaseInput_InputTemplate"><path codeLine="24" d="M148,391.0216 C148,391.0216 148,448 148,448 C148,448 314.817,448 430.806,448 " fill="none" id="BaseInput-backto-InputTemplate" style="stroke:#181818;stroke-width:1.0;"/><polygon fill="none" points="141,391.0216,148,371.022,155,391.0215,141,391.0216" style="stroke:#181818;stroke-width:1.0;"/></g><!--MD5=[ba3d5a1c0614ea4e572219204e02e533]
link ProjectReportTemplate to Section--><g id="link_ProjectReportTemplate_Section"><path codeLine="26" d="M418,120.116 C418,156.501 418,197 418,197 C418,197 333.986,197 257.028,197 " fill="none" id="ProjectReportTemplate-Section" style="stroke:#181818;stroke-width:1.0;"/><text fill="#000000" font-family="sans-serif" font-size="13" lengthAdjust="spacing" textLength="8" x="394.8813" y="140.3943">1</text><text fill="#000000" font-family="sans-serif" font-size="13" lengthAdjust="spacing" textLength="23" x="264.921" y="193.6286">1..*</text></g><!--MD5=[08ab8dfa7be28c34a7c404a2d916a3a8]
link Section to BaseInput--><g id="link_Section_BaseInput"><path codeLine="28" d="M148,229.319 C148,242.828 148,258.819 148,273.706 " fill="none" id="Section-BaseInput" style="stroke:#181818;stroke-width:1.0;"/><text fill="#000000" font-family="sans-serif" font-size="13" lengthAdjust="spacing" textLength="8" x="142.475" y="249.5816">1</text><text fill="#000000" font-family="sans-serif" font-size="13" lengthAdjust="spacing" textLength="23" x="123.3828" y="262.8736">0..*</text></g><!--MD5=[4b48bf0be3554947e87d209740860414]
@startuml
skinparam linetype ortho
skinparam nodesep 450
skinparam ranksep 45

Class ProjectReportTemplate{
- reportName: InputTemplate
- reportID: InputTemplate
- reportGroup: InputTemplate
- sections: Map<String, Section>
}
Class Section{
- fields: Map<String, BaseInput>
}
abstract Class BaseInput{
- type: Datatype
- inputType: InputType
- isRequired: boolean
}
Class InputTemplate{
allowedValues: List<Object>
}
ProjectReportTemplate "1" - - "1..*" InputTemplate

BaseInput <|- - InputTemplate

ProjectReportTemplate "1" - - "1..*" Section

Section "1" - - "0..*" BaseInput
@enduml

PlantUML version 1.2022.7beta2(Unknown compile time)
(GPL source distribution)
Java Runtime: Java(TM) SE Runtime Environment
JVM: Java HotSpot(TM) 64-Bit Server VM
Default Encoding: UTF-8
Language: en
Country: US
--></g></svg>