<?xml version="1.0" encoding="UTF-8" standalone="no"?><svg xmlns="http://www.w3.org/2000/svg" xmlns:xlink="http://www.w3.org/1999/xlink" contentStyleType="text/css" height="483px" preserveAspectRatio="none" style="width:943px;height:483px;background:#FFFFFF;" version="1.1" viewBox="0 0 943 483" width="943px" zoomAndPan="magnify"><defs/><g><!--MD5=[df3771a4751325c6d94458f5b09c1010]
class ProjectReportTemplate--><g id="elem_ProjectReportTemplate"><rect codeLine="1" fill="#F1F1F1" height="64.2969" id="ProjectReportTemplate" rx="2.5" ry="2.5" style="stroke:#181818;stroke-width:0.5;" width="232" x="345" y="7"/><ellipse cx="372.15" cy="23" fill="#ADD1B2" rx="11" ry="11" style="stroke:#181818;stroke-width:1.0;"/><path d="M374.4938,18.6719 C373.5563,18.2344 372.9625,18.0938 372.0875,18.0938 C369.4625,18.0938 367.4625,20.1719 367.4625,22.8906 L367.4625,24.0156 C367.4625,26.5938 369.5719,28.4844 372.4625,28.4844 C373.6813,28.4844 374.8375,28.1875 375.5875,27.6406 C376.1656,27.2344 376.4938,26.7813 376.4938,26.3906 C376.4938,25.9375 376.1031,25.5469 375.6344,25.5469 C375.4156,25.5469 375.2125,25.625 375.025,25.8125 C374.5719,26.2969 374.5719,26.2969 374.3844,26.3906 C373.9625,26.6563 373.275,26.7813 372.5094,26.7813 C370.4625,26.7813 369.1656,25.6875 369.1656,23.9844 L369.1656,22.8906 C369.1656,21.1094 370.4156,19.7969 372.15,19.7969 C372.7281,19.7969 373.3375,19.9531 373.8063,20.2031 C374.2906,20.4844 374.4625,20.7031 374.5563,21.1094 C374.6188,21.5156 374.65,21.6406 374.7906,21.7656 C374.9313,21.9063 375.1656,22.0156 375.3844,22.0156 C375.65,22.0156 375.9156,21.875 376.0875,21.6563 C376.1969,21.5 376.2281,21.3125 376.2281,20.8906 L376.2281,19.4688 C376.2281,19.0313 376.2125,18.9063 376.1188,18.75 C375.9625,18.4844 375.6813,18.3438 375.3844,18.3438 C375.0875,18.3438 374.8844,18.4375 374.6656,18.75 L374.4938,18.6719 Z " fill="#000000"/><text fill="#000000" font-family="sans-serif" font-size="14" lengthAdjust="spacing" textLength="173" x="388.85" y="27.8467">ProjectReportTemplate</text><line style="stroke:#181818;stroke-width:0.5;" x1="346" x2="576" y1="39" y2="39"/><rect fill="none" height="6" style="stroke:#C82930;stroke-width:1.0;" width="6" x="353" y="47"/><text fill="#000000" font-family="sans-serif" font-size="14" lengthAdjust="spacing" textLength="206" x="365" y="55.9951">groups: Map&lt;String, Group&gt;</text><line style="stroke:#181818;stroke-width:0.5;" x1="346" x2="576" y1="63.2969" y2="63.2969"/></g><!--MD5=[41314a0efc36828092cff9ebad2fcafd]
class Group--><g id="elem_Group"><rect codeLine="4" fill="#F1F1F1" height="64.2969" id="Group" rx="2.5" ry="2.5" style="stroke:#181818;stroke-width:0.5;" width="250" x="336" y="131"/><ellipse cx="434.75" cy="147" fill="#ADD1B2" rx="11" ry="11" style="stroke:#181818;stroke-width:1.0;"/><path d="M437.0938,142.6719 C436.1563,142.2344 435.5625,142.0938 434.6875,142.0938 C432.0625,142.0938 430.0625,144.1719 430.0625,146.8906 L430.0625,148.0156 C430.0625,150.5938 432.1719,152.4844 435.0625,152.4844 C436.2813,152.4844 437.4375,152.1875 438.1875,151.6406 C438.7656,151.2344 439.0938,150.7813 439.0938,150.3906 C439.0938,149.9375 438.7031,149.5469 438.2344,149.5469 C438.0156,149.5469 437.8125,149.625 437.625,149.8125 C437.1719,150.2969 437.1719,150.2969 436.9844,150.3906 C436.5625,150.6563 435.875,150.7813 435.1094,150.7813 C433.0625,150.7813 431.7656,149.6875 431.7656,147.9844 L431.7656,146.8906 C431.7656,145.1094 433.0156,143.7969 434.75,143.7969 C435.3281,143.7969 435.9375,143.9531 436.4063,144.2031 C436.8906,144.4844 437.0625,144.7031 437.1563,145.1094 C437.2188,145.5156 437.25,145.6406 437.3906,145.7656 C437.5313,145.9063 437.7656,146.0156 437.9844,146.0156 C438.25,146.0156 438.5156,145.875 438.6875,145.6563 C438.7969,145.5 438.8281,145.3125 438.8281,144.8906 L438.8281,143.4688 C438.8281,143.0313 438.8125,142.9063 438.7188,142.75 C438.5625,142.4844 438.2813,142.3438 437.9844,142.3438 C437.6875,142.3438 437.4844,142.4375 437.2656,142.75 L437.0938,142.6719 Z " fill="#000000"/><text fill="#000000" font-family="sans-serif" font-size="14" lengthAdjust="spacing" textLength="44" x="455.25" y="151.8467">Group</text><line style="stroke:#181818;stroke-width:0.5;" x1="337" x2="585" y1="163" y2="163"/><rect fill="none" height="6" style="stroke:#C82930;stroke-width:1.0;" width="6" x="344" y="171"/><text fill="#000000" font-family="sans-serif" font-size="14" lengthAdjust="spacing" textLength="224" x="356" y="179.9951">fields: Map&lt;String, BaseInput&gt;</text><line style="stroke:#181818;stroke-width:0.5;" x1="337" x2="585" y1="187.2969" y2="187.2969"/></g><!--MD5=[dbc8686727f9c245d23b6d04ab358f14]
class BaseInput--><g id="elem_BaseInput"><rect codeLine="7" fill="#F1F1F1" height="96.8906" id="BaseInput" rx="2.5" ry="2.5" style="stroke:#181818;stroke-width:0.5;" width="247" x="337.5" y="255"/><ellipse cx="421.25" cy="271" fill="#A9DCDF" rx="11" ry="11" style="stroke:#181818;stroke-width:1.0;"/><path d="M423.3281,272.8125 L423.7188,273.7969 L423.3281,273.7969 C422.875,273.7969 422.7656,273.8125 422.6094,273.9219 C422.3594,274.0781 422.2031,274.3594 422.2031,274.6563 C422.2031,274.9219 422.3438,275.1719 422.5625,275.3281 C422.7031,275.4531 422.9063,275.5 423.3281,275.5 L425.6875,275.5 C426.0469,275.5 426.2656,275.4688 426.4063,275.375 C426.6563,275.2344 426.8125,274.9375 426.8125,274.6563 C426.8125,274.375 426.6719,274.125 426.4531,273.9688 C426.2813,273.8281 426.125,273.7969 425.6563,273.7969 L422.2656,265.5938 L418.5938,265.5938 C418.1406,265.5938 418.0156,265.6094 417.8594,265.7031 C417.6094,265.875 417.4531,266.1563 417.4531,266.4375 C417.4531,266.7188 417.5938,266.9688 417.8125,267.1406 C417.9844,267.25 418.1563,267.2813 418.5938,267.2813 L419.6719,267.2813 L417.0313,273.7969 C416.6094,273.7969 416.4531,273.8125 416.2969,273.9219 C416.0469,274.0781 415.8906,274.3594 415.8906,274.6563 C415.8906,275.2188 416.2656,275.5 417.0156,275.5 L419.2813,275.5 C419.6406,275.5 419.8594,275.4688 419.9844,275.375 C420.25,275.2344 420.3906,274.9375 420.3906,274.6563 C420.3906,274.375 420.2656,274.125 420.0469,273.9531 C419.875,273.8281 419.7344,273.7969 419.2813,273.7969 L418.8906,273.7969 L419.2813,272.8125 L423.3281,272.8125 Z M422.625,271.1094 L419.9531,271.1094 L421.2969,267.8438 L422.625,271.1094 Z " fill="#000000"/><text fill="#000000" font-family="sans-serif" font-size="14" font-style="italic" lengthAdjust="spacing" textLength="71" x="441.75" y="275.8467">BaseInput</text><line style="stroke:#181818;stroke-width:0.5;" x1="338.5" x2="583.5" y1="287" y2="287"/><rect fill="none" height="6" style="stroke:#C82930;stroke-width:1.0;" width="6" x="345.5" y="295"/><text fill="#000000" font-family="sans-serif" font-size="14" lengthAdjust="spacing" textLength="111" x="357.5" y="303.9951">type: Datatype</text><rect fill="none" height="6" style="stroke:#C82930;stroke-width:1.0;" width="6" x="345.5" y="311.2969"/><text fill="#000000" font-family="sans-serif" font-size="14" lengthAdjust="spacing" textLength="157" x="357.5" y="320.292">inputType: InputType</text><rect fill="none" height="6" style="stroke:#C82930;stroke-width:1.0;" width="6" x="345.5" y="327.5938"/><text fill="#000000" font-family="sans-serif" font-size="14" lengthAdjust="spacing" textLength="221" x="357.5" y="336.5889">modifiers: Set&lt;InputModifier&gt;</text><line style="stroke:#181818;stroke-width:0.5;" x1="338.5" x2="583.5" y1="343.8906" y2="343.8906"/></g><!--MD5=[e5f02d550448ad64cefcfc9220c6886c]
class SingleInputTemplate--><g id="elem_SingleInputTemplate"><rect codeLine="12" fill="#F1F1F1" height="48" id="SingleInputTemplate" rx="2.5" ry="2.5" style="stroke:#181818;stroke-width:0.5;" width="184" x="7" y="420"/><ellipse cx="22" cy="436" fill="#ADD1B2" rx="11" ry="11" style="stroke:#181818;stroke-width:1.0;"/><path d="M24.3438,431.6719 C23.4063,431.2344 22.8125,431.0938 21.9375,431.0938 C19.3125,431.0938 17.3125,433.1719 17.3125,435.8906 L17.3125,437.0156 C17.3125,439.5938 19.4219,441.4844 22.3125,441.4844 C23.5313,441.4844 24.6875,441.1875 25.4375,440.6406 C26.0156,440.2344 26.3438,439.7813 26.3438,439.3906 C26.3438,438.9375 25.9531,438.5469 25.4844,438.5469 C25.2656,438.5469 25.0625,438.625 24.875,438.8125 C24.4219,439.2969 24.4219,439.2969 24.2344,439.3906 C23.8125,439.6563 23.125,439.7813 22.3594,439.7813 C20.3125,439.7813 19.0156,438.6875 19.0156,436.9844 L19.0156,435.8906 C19.0156,434.1094 20.2656,432.7969 22,432.7969 C22.5781,432.7969 23.1875,432.9531 23.6563,433.2031 C24.1406,433.4844 24.3125,433.7031 24.4063,434.1094 C24.4688,434.5156 24.5,434.6406 24.6406,434.7656 C24.7813,434.9063 25.0156,435.0156 25.2344,435.0156 C25.5,435.0156 25.7656,434.875 25.9375,434.6563 C26.0469,434.5 26.0781,434.3125 26.0781,433.8906 L26.0781,432.4688 C26.0781,432.0313 26.0625,431.9063 25.9688,431.75 C25.8125,431.4844 25.5313,431.3438 25.2344,431.3438 C24.9375,431.3438 24.7344,431.4375 24.5156,431.75 L24.3438,431.6719 Z " fill="#000000"/><text fill="#000000" font-family="sans-serif" font-size="14" lengthAdjust="spacing" textLength="152" x="36" y="440.8467">SingleInputTemplate</text><line style="stroke:#181818;stroke-width:0.5;" x1="8" x2="190" y1="452" y2="452"/><line style="stroke:#181818;stroke-width:0.5;" x1="8" x2="190" y1="460" y2="460"/></g><!--MD5=[c1f59655be559e0ed59c1089679d6b54]
class SelectSingleInputTemplate--><g id="elem_SelectSingleInputTemplate"><rect codeLine="14" fill="#F1F1F1" height="64.2969" id="SelectSingleInputTemplate" rx="2.5" ry="2.5" style="stroke:#181818;stroke-width:0.5;" width="232" x="226" y="412"/><ellipse cx="241.9" cy="428" fill="#ADD1B2" rx="11" ry="11" style="stroke:#181818;stroke-width:1.0;"/><path d="M244.2438,423.6719 C243.3063,423.2344 242.7125,423.0938 241.8375,423.0938 C239.2125,423.0938 237.2125,425.1719 237.2125,427.8906 L237.2125,429.0156 C237.2125,431.5938 239.3219,433.4844 242.2125,433.4844 C243.4313,433.4844 244.5875,433.1875 245.3375,432.6406 C245.9156,432.2344 246.2438,431.7813 246.2438,431.3906 C246.2438,430.9375 245.8531,430.5469 245.3844,430.5469 C245.1656,430.5469 244.9625,430.625 244.775,430.8125 C244.3219,431.2969 244.3219,431.2969 244.1344,431.3906 C243.7125,431.6563 243.025,431.7813 242.2594,431.7813 C240.2125,431.7813 238.9156,430.6875 238.9156,428.9844 L238.9156,427.8906 C238.9156,426.1094 240.1656,424.7969 241.9,424.7969 C242.4781,424.7969 243.0875,424.9531 243.5563,425.2031 C244.0406,425.4844 244.2125,425.7031 244.3063,426.1094 C244.3688,426.5156 244.4,426.6406 244.5406,426.7656 C244.6813,426.9063 244.9156,427.0156 245.1344,427.0156 C245.4,427.0156 245.6656,426.875 245.8375,426.6563 C245.9469,426.5 245.9781,426.3125 245.9781,425.8906 L245.9781,424.4688 C245.9781,424.0313 245.9625,423.9063 245.8688,423.75 C245.7125,423.4844 245.4313,423.3438 245.1344,423.3438 C244.8375,423.3438 244.6344,423.4375 244.4156,423.75 L244.2438,423.6719 Z " fill="#000000"/><text fill="#000000" font-family="sans-serif" font-size="14" lengthAdjust="spacing" textLength="198" x="256.1" y="432.8467">SelectSingleInputTemplate</text><line style="stroke:#181818;stroke-width:0.5;" x1="227" x2="457" y1="444" y2="444"/><rect fill="none" height="6" style="stroke:#C82930;stroke-width:1.0;" width="6" x="234" y="452"/><text fill="#000000" font-family="sans-serif" font-size="14" lengthAdjust="spacing" textLength="206" x="246" y="460.9951">allowedValues: List&lt;Object&gt;</text><line style="stroke:#181818;stroke-width:0.5;" x1="227" x2="457" y1="468.2969" y2="468.2969"/></g><!--MD5=[85a38a240a7b47261bd199c2c42550f0]
class MultiInputTemplate--><g id="elem_MultiInputTemplate"><rect codeLine="17" fill="#F1F1F1" height="48" id="MultiInputTemplate" rx="2.5" ry="2.5" style="stroke:#181818;stroke-width:0.5;" width="175" x="493.5" y="420"/><ellipse cx="508.5" cy="436" fill="#ADD1B2" rx="11" ry="11" style="stroke:#181818;stroke-width:1.0;"/><path d="M510.8438,431.6719 C509.9063,431.2344 509.3125,431.0938 508.4375,431.0938 C505.8125,431.0938 503.8125,433.1719 503.8125,435.8906 L503.8125,437.0156 C503.8125,439.5938 505.9219,441.4844 508.8125,441.4844 C510.0313,441.4844 511.1875,441.1875 511.9375,440.6406 C512.5156,440.2344 512.8438,439.7813 512.8438,439.3906 C512.8438,438.9375 512.4531,438.5469 511.9844,438.5469 C511.7656,438.5469 511.5625,438.625 511.375,438.8125 C510.9219,439.2969 510.9219,439.2969 510.7344,439.3906 C510.3125,439.6563 509.625,439.7813 508.8594,439.7813 C506.8125,439.7813 505.5156,438.6875 505.5156,436.9844 L505.5156,435.8906 C505.5156,434.1094 506.7656,432.7969 508.5,432.7969 C509.0781,432.7969 509.6875,432.9531 510.1563,433.2031 C510.6406,433.4844 510.8125,433.7031 510.9063,434.1094 C510.9688,434.5156 511,434.6406 511.1406,434.7656 C511.2813,434.9063 511.5156,435.0156 511.7344,435.0156 C512,435.0156 512.2656,434.875 512.4375,434.6563 C512.5469,434.5 512.5781,434.3125 512.5781,433.8906 L512.5781,432.4688 C512.5781,432.0313 512.5625,431.9063 512.4688,431.75 C512.3125,431.4844 512.0313,431.3438 511.7344,431.3438 C511.4375,431.3438 511.2344,431.4375 511.0156,431.75 L510.8438,431.6719 Z " fill="#000000"/><text fill="#000000" font-family="sans-serif" font-size="14" lengthAdjust="spacing" textLength="143" x="522.5" y="440.8467">MultiInputTemplate</text><line style="stroke:#181818;stroke-width:0.5;" x1="494.5" x2="667.5" y1="452" y2="452"/><line style="stroke:#181818;stroke-width:0.5;" x1="494.5" x2="667.5" y1="460" y2="460"/></g><!--MD5=[b74a35a2ae6d03d2d93242cdda69831f]
class SelectMultiInputTemplate--><g id="elem_SelectMultiInputTemplate"><rect codeLine="19" fill="#F1F1F1" height="64.2969" id="SelectMultiInputTemplate" rx="2.5" ry="2.5" style="stroke:#181818;stroke-width:0.5;" width="232" x="704" y="412"/><ellipse cx="723.95" cy="428" fill="#ADD1B2" rx="11" ry="11" style="stroke:#181818;stroke-width:1.0;"/><path d="M726.2938,423.6719 C725.3563,423.2344 724.7625,423.0938 723.8875,423.0938 C721.2625,423.0938 719.2625,425.1719 719.2625,427.8906 L719.2625,429.0156 C719.2625,431.5938 721.3719,433.4844 724.2625,433.4844 C725.4813,433.4844 726.6375,433.1875 727.3875,432.6406 C727.9656,432.2344 728.2938,431.7813 728.2938,431.3906 C728.2938,430.9375 727.9031,430.5469 727.4344,430.5469 C727.2156,430.5469 727.0125,430.625 726.825,430.8125 C726.3719,431.2969 726.3719,431.2969 726.1844,431.3906 C725.7625,431.6563 725.075,431.7813 724.3094,431.7813 C722.2625,431.7813 720.9656,430.6875 720.9656,428.9844 L720.9656,427.8906 C720.9656,426.1094 722.2156,424.7969 723.95,424.7969 C724.5281,424.7969 725.1375,424.9531 725.6063,425.2031 C726.0906,425.4844 726.2625,425.7031 726.3563,426.1094 C726.4188,426.5156 726.45,426.6406 726.5906,426.7656 C726.7313,426.9063 726.9656,427.0156 727.1844,427.0156 C727.45,427.0156 727.7156,426.875 727.8875,426.6563 C727.9969,426.5 728.0281,426.3125 728.0281,425.8906 L728.0281,424.4688 C728.0281,424.0313 728.0125,423.9063 727.9188,423.75 C727.7625,423.4844 727.4813,423.3438 727.1844,423.3438 C726.8875,423.3438 726.6844,423.4375 726.4656,423.75 L726.2938,423.6719 Z " fill="#000000"/><text fill="#000000" font-family="sans-serif" font-size="14" lengthAdjust="spacing" textLength="189" x="739.05" y="432.8467">SelectMultiInputTemplate</text><line style="stroke:#181818;stroke-width:0.5;" x1="705" x2="935" y1="444" y2="444"/><rect fill="none" height="6" style="stroke:#C82930;stroke-width:1.0;" width="6" x="712" y="452"/><text fill="#000000" font-family="sans-serif" font-size="14" lengthAdjust="spacing" textLength="206" x="724" y="460.9951">allowedValues: List&lt;Object&gt;</text><line style="stroke:#181818;stroke-width:0.5;" x1="705" x2="935" y1="468.2969" y2="468.2969"/></g><!--MD5=[3e31271b831a91acee00f4db0f09d10c]
reverse link BaseInput to SingleInputTemplate--><g id="link_BaseInput_SingleInputTemplate"><path codeLine="23" d="M318.462,359.035 C263.017,380.2476 202.524,403.3922 159.117,419.9996 " fill="none" id="BaseInput-backto-SingleInputTemplate" style="stroke:#181818;stroke-width:1.0;"/><polygon fill="none" points="316.252,352.385,337.433,351.776,321.254,365.461,316.252,352.385" style="stroke:#181818;stroke-width:1.0;"/></g><!--MD5=[2d1c4237ed50fc12f73de5458fc94094]
reverse link BaseInput to SelectSingleInputTemplate--><g id="link_BaseInput_SelectSingleInputTemplate"><path codeLine="24" d="M406.607,367.807 C393.49,383.0728 380.04,398.7269 368.831,411.7722 " fill="none" id="BaseInput-backto-SelectSingleInputTemplate" style="stroke:#181818;stroke-width:1.0;"/><polygon fill="none" points="401.704,362.772,420.047,352.164,412.322,371.895,401.704,362.772" style="stroke:#181818;stroke-width:1.0;"/></g><!--MD5=[a43c4f827dff781fc3464a4c0977c267]
reverse link BaseInput to MultiInputTemplate--><g id="link_BaseInput_MultiInputTemplate"><path codeLine="25" d="M515.619,367.539 C531.747,386.1535 548.398,405.3716 560.86,419.7548 " fill="none" id="BaseInput-backto-MultiInputTemplate" style="stroke:#181818;stroke-width:1.0;"/><polygon fill="none" points="510.103,371.863,502.297,352.164,520.684,362.696,510.103,371.863" style="stroke:#181818;stroke-width:1.0;"/></g><!--MD5=[6575c214ff0ca70fd86cdc470c421cdb]
reverse link BaseInput to SelectMultiInputTemplate--><g id="link_BaseInput_SelectMultiInputTemplate"><path codeLine="26" d="M603.211,359.364 C649.532,377.2343 699.318,396.4418 739.484,411.9376 " fill="none" id="BaseInput-backto-SelectMultiInputTemplate" style="stroke:#181818;stroke-width:1.0;"/><polygon fill="none" points="600.436,365.797,584.296,352.067,605.475,352.735,600.436,365.797" style="stroke:#181818;stroke-width:1.0;"/></g><!--MD5=[580aa0355702093f37b604237bed984a]
link ProjectReportTemplate to Group--><g id="link_ProjectReportTemplate_Group"><path codeLine="28" d="M461,71.101 C461,89.457 461,112.61 461,130.955 " fill="none" id="ProjectReportTemplate-Group" style="stroke:#181818;stroke-width:1.0;"/><text fill="#000000" font-family="sans-serif" font-size="13" lengthAdjust="spacing" textLength="8" x="452.175" y="91.3187">1</text><text fill="#000000" font-family="sans-serif" font-size="13" lengthAdjust="spacing" textLength="23" x="435.6281" y="119.8488">1..*</text></g><!--MD5=[48db203b5e5c1765fe386771e89e7e20]
link Group to BaseInput--><g id="link_Group_BaseInput"><path codeLine="29" d="M461,195.082 C461,212.708 461,235.131 461,254.926 " fill="none" id="Group-BaseInput" style="stroke:#181818;stroke-width:1.0;"/><text fill="#000000" font-family="sans-serif" font-size="13" lengthAdjust="spacing" textLength="8" x="452.175" y="215.2958">1</text><text fill="#000000" font-family="sans-serif" font-size="13" lengthAdjust="spacing" textLength="23" x="436.3109" y="243.7748">0..*</text></g><!--MD5=[106c4dc058d3ca732ff41b47e9935e9b]
@startuml
Class ProjectReportTemplate{
- groups: Map<String, Group>
}
Class Group{
- fields: Map<String, BaseInput>
}
abstract Class BaseInput{
- type: Datatype
- inputType: InputType
- modifiers: Set<InputModifier>
}
Class SingleInputTemplate{
}
Class SelectSingleInputTemplate{
- allowedValues: List<Object>
}
Class MultiInputTemplate{
}
Class SelectMultiInputTemplate{
- allowedValues: List<Object>
}

BaseInput <|- - SingleInputTemplate
BaseInput <|- - SelectSingleInputTemplate
BaseInput <|- - MultiInputTemplate
BaseInput <|- - SelectMultiInputTemplate

ProjectReportTemplate "1" - - "1..*" Group
Group "1" - - "0..*" BaseInput
@enduml

PlantUML version 1.2022.6beta5(Unknown compile time)
(GPL source distribution)
Java Runtime: Java(TM) SE Runtime Environment
JVM: Java HotSpot(TM) 64-Bit Server VM
Default Encoding: UTF-8
Language: en
Country: US
--></g></svg>