<?xml version="1.0" encoding="UTF-8" standalone="no"?><svg xmlns="http://www.w3.org/2000/svg" xmlns:xlink="http://www.w3.org/1999/xlink" contentStyleType="text/css" height="607px" preserveAspectRatio="none" style="width:943px;height:607px;background:#FFFFFF;" version="1.1" viewBox="0 0 943 607" width="943px" zoomAndPan="magnify"><defs/><g><!--MD5=[c4c079a038893c355a5af4c3546826a5]
class ProjectReport--><g id="elem_ProjectReport"><rect codeLine="1" fill="#F1F1F1" height="64.2969" id="ProjectReport" rx="2.5" ry="2.5" style="stroke:#181818;stroke-width:0.5;" width="232" x="345" y="7"/><ellipse cx="405.25" cy="23" fill="#ADD1B2" rx="11" ry="11" style="stroke:#181818;stroke-width:1.0;"/><path d="M407.5938,18.6719 C406.6563,18.2344 406.0625,18.0938 405.1875,18.0938 C402.5625,18.0938 400.5625,20.1719 400.5625,22.8906 L400.5625,24.0156 C400.5625,26.5938 402.6719,28.4844 405.5625,28.4844 C406.7813,28.4844 407.9375,28.1875 408.6875,27.6406 C409.2656,27.2344 409.5938,26.7813 409.5938,26.3906 C409.5938,25.9375 409.2031,25.5469 408.7344,25.5469 C408.5156,25.5469 408.3125,25.625 408.125,25.8125 C407.6719,26.2969 407.6719,26.2969 407.4844,26.3906 C407.0625,26.6563 406.375,26.7813 405.6094,26.7813 C403.5625,26.7813 402.2656,25.6875 402.2656,23.9844 L402.2656,22.8906 C402.2656,21.1094 403.5156,19.7969 405.25,19.7969 C405.8281,19.7969 406.4375,19.9531 406.9063,20.2031 C407.3906,20.4844 407.5625,20.7031 407.6563,21.1094 C407.7188,21.5156 407.75,21.6406 407.8906,21.7656 C408.0313,21.9063 408.2656,22.0156 408.4844,22.0156 C408.75,22.0156 409.0156,21.875 409.1875,21.6563 C409.2969,21.5 409.3281,21.3125 409.3281,20.8906 L409.3281,19.4688 C409.3281,19.0313 409.3125,18.9063 409.2188,18.75 C409.0625,18.4844 408.7813,18.3438 408.4844,18.3438 C408.1875,18.3438 407.9844,18.4375 407.7656,18.75 L407.5938,18.6719 Z " fill="#000000"/><text fill="#000000" font-family="sans-serif" font-size="14" lengthAdjust="spacing" textLength="103" x="425.75" y="27.8467">ProjectReport</text><line style="stroke:#181818;stroke-width:0.5;" x1="346" x2="576" y1="39" y2="39"/><rect fill="none" height="6" style="stroke:#C82930;stroke-width:1.0;" width="6" x="353" y="47"/><text fill="#000000" font-family="sans-serif" font-size="14" lengthAdjust="spacing" textLength="206" x="365" y="55.9951">groups: Map&lt;String, Group&gt;</text><line style="stroke:#181818;stroke-width:0.5;" x1="346" x2="576" y1="63.2969" y2="63.2969"/></g><!--MD5=[41314a0efc36828092cff9ebad2fcafd]
class Group--><g id="elem_Group"><rect codeLine="4" fill="#F1F1F1" height="64.2969" id="Group" rx="2.5" ry="2.5" style="stroke:#181818;stroke-width:0.5;" width="250" x="336" y="131"/><ellipse cx="434.75" cy="147" fill="#ADD1B2" rx="11" ry="11" style="stroke:#181818;stroke-width:1.0;"/><path d="M437.0938,142.6719 C436.1563,142.2344 435.5625,142.0938 434.6875,142.0938 C432.0625,142.0938 430.0625,144.1719 430.0625,146.8906 L430.0625,148.0156 C430.0625,150.5938 432.1719,152.4844 435.0625,152.4844 C436.2813,152.4844 437.4375,152.1875 438.1875,151.6406 C438.7656,151.2344 439.0938,150.7813 439.0938,150.3906 C439.0938,149.9375 438.7031,149.5469 438.2344,149.5469 C438.0156,149.5469 437.8125,149.625 437.625,149.8125 C437.1719,150.2969 437.1719,150.2969 436.9844,150.3906 C436.5625,150.6563 435.875,150.7813 435.1094,150.7813 C433.0625,150.7813 431.7656,149.6875 431.7656,147.9844 L431.7656,146.8906 C431.7656,145.1094 433.0156,143.7969 434.75,143.7969 C435.3281,143.7969 435.9375,143.9531 436.4063,144.2031 C436.8906,144.4844 437.0625,144.7031 437.1563,145.1094 C437.2188,145.5156 437.25,145.6406 437.3906,145.7656 C437.5313,145.9063 437.7656,146.0156 437.9844,146.0156 C438.25,146.0156 438.5156,145.875 438.6875,145.6563 C438.7969,145.5 438.8281,145.3125 438.8281,144.8906 L438.8281,143.4688 C438.8281,143.0313 438.8125,142.9063 438.7188,142.75 C438.5625,142.4844 438.2813,142.3438 437.9844,142.3438 C437.6875,142.3438 437.4844,142.4375 437.2656,142.75 L437.0938,142.6719 Z " fill="#000000"/><text fill="#000000" font-family="sans-serif" font-size="14" lengthAdjust="spacing" textLength="44" x="455.25" y="151.8467">Group</text><line style="stroke:#181818;stroke-width:0.5;" x1="337" x2="585" y1="163" y2="163"/><rect fill="none" height="6" style="stroke:#C82930;stroke-width:1.0;" width="6" x="344" y="171"/><text fill="#000000" font-family="sans-serif" font-size="14" lengthAdjust="spacing" textLength="224" x="356" y="179.9951">fields: Map&lt;String, BaseInput&gt;</text><line style="stroke:#181818;stroke-width:0.5;" x1="337" x2="585" y1="187.2969" y2="187.2969"/></g><!--MD5=[dbc8686727f9c245d23b6d04ab358f14]
class BaseInput--><g id="elem_BaseInput"><rect codeLine="7" fill="#F1F1F1" height="96.8906" id="BaseInput" rx="2.5" ry="2.5" style="stroke:#181818;stroke-width:0.5;" width="247" x="337.5" y="255"/><ellipse cx="421.25" cy="271" fill="#A9DCDF" rx="11" ry="11" style="stroke:#181818;stroke-width:1.0;"/><path d="M423.3281,272.8125 L423.7188,273.7969 L423.3281,273.7969 C422.875,273.7969 422.7656,273.8125 422.6094,273.9219 C422.3594,274.0781 422.2031,274.3594 422.2031,274.6563 C422.2031,274.9219 422.3438,275.1719 422.5625,275.3281 C422.7031,275.4531 422.9063,275.5 423.3281,275.5 L425.6875,275.5 C426.0469,275.5 426.2656,275.4688 426.4063,275.375 C426.6563,275.2344 426.8125,274.9375 426.8125,274.6563 C426.8125,274.375 426.6719,274.125 426.4531,273.9688 C426.2813,273.8281 426.125,273.7969 425.6563,273.7969 L422.2656,265.5938 L418.5938,265.5938 C418.1406,265.5938 418.0156,265.6094 417.8594,265.7031 C417.6094,265.875 417.4531,266.1563 417.4531,266.4375 C417.4531,266.7188 417.5938,266.9688 417.8125,267.1406 C417.9844,267.25 418.1563,267.2813 418.5938,267.2813 L419.6719,267.2813 L417.0313,273.7969 C416.6094,273.7969 416.4531,273.8125 416.2969,273.9219 C416.0469,274.0781 415.8906,274.3594 415.8906,274.6563 C415.8906,275.2188 416.2656,275.5 417.0156,275.5 L419.2813,275.5 C419.6406,275.5 419.8594,275.4688 419.9844,275.375 C420.25,275.2344 420.3906,274.9375 420.3906,274.6563 C420.3906,274.375 420.2656,274.125 420.0469,273.9531 C419.875,273.8281 419.7344,273.7969 419.2813,273.7969 L418.8906,273.7969 L419.2813,272.8125 L423.3281,272.8125 Z M422.625,271.1094 L419.9531,271.1094 L421.2969,267.8438 L422.625,271.1094 Z " fill="#000000"/><text fill="#000000" font-family="sans-serif" font-size="14" font-style="italic" lengthAdjust="spacing" textLength="71" x="441.75" y="275.8467">BaseInput</text><line style="stroke:#181818;stroke-width:0.5;" x1="338.5" x2="583.5" y1="287" y2="287"/><rect fill="none" height="6" style="stroke:#C82930;stroke-width:1.0;" width="6" x="345.5" y="295"/><text fill="#000000" font-family="sans-serif" font-size="14" lengthAdjust="spacing" textLength="111" x="357.5" y="303.9951">type: Datatype</text><rect fill="none" height="6" style="stroke:#C82930;stroke-width:1.0;" width="6" x="345.5" y="311.2969"/><text fill="#000000" font-family="sans-serif" font-size="14" lengthAdjust="spacing" textLength="157" x="357.5" y="320.292">inputType: InputType</text><rect fill="none" height="6" style="stroke:#C82930;stroke-width:1.0;" width="6" x="345.5" y="327.5938"/><text fill="#000000" font-family="sans-serif" font-size="14" lengthAdjust="spacing" textLength="221" x="357.5" y="336.5889">modifiers: Set&lt;InputModifier&gt;</text><line style="stroke:#181818;stroke-width:0.5;" x1="338.5" x2="583.5" y1="343.8906" y2="343.8906"/></g><!--MD5=[e5f02d550448ad64cefcfc9220c6886c]
class SingleInputTemplate--><g id="elem_SingleInputTemplate"><rect codeLine="12" fill="#F1F1F1" height="48" id="SingleInputTemplate" rx="2.5" ry="2.5" style="stroke:#181818;stroke-width:0.5;" width="184" x="7" y="420"/><ellipse cx="22" cy="436" fill="#ADD1B2" rx="11" ry="11" style="stroke:#181818;stroke-width:1.0;"/><path d="M24.3438,431.6719 C23.4063,431.2344 22.8125,431.0938 21.9375,431.0938 C19.3125,431.0938 17.3125,433.1719 17.3125,435.8906 L17.3125,437.0156 C17.3125,439.5938 19.4219,441.4844 22.3125,441.4844 C23.5313,441.4844 24.6875,441.1875 25.4375,440.6406 C26.0156,440.2344 26.3438,439.7813 26.3438,439.3906 C26.3438,438.9375 25.9531,438.5469 25.4844,438.5469 C25.2656,438.5469 25.0625,438.625 24.875,438.8125 C24.4219,439.2969 24.4219,439.2969 24.2344,439.3906 C23.8125,439.6563 23.125,439.7813 22.3594,439.7813 C20.3125,439.7813 19.0156,438.6875 19.0156,436.9844 L19.0156,435.8906 C19.0156,434.1094 20.2656,432.7969 22,432.7969 C22.5781,432.7969 23.1875,432.9531 23.6563,433.2031 C24.1406,433.4844 24.3125,433.7031 24.4063,434.1094 C24.4688,434.5156 24.5,434.6406 24.6406,434.7656 C24.7813,434.9063 25.0156,435.0156 25.2344,435.0156 C25.5,435.0156 25.7656,434.875 25.9375,434.6563 C26.0469,434.5 26.0781,434.3125 26.0781,433.8906 L26.0781,432.4688 C26.0781,432.0313 26.0625,431.9063 25.9688,431.75 C25.8125,431.4844 25.5313,431.3438 25.2344,431.3438 C24.9375,431.3438 24.7344,431.4375 24.5156,431.75 L24.3438,431.6719 Z " fill="#000000"/><text fill="#000000" font-family="sans-serif" font-size="14" lengthAdjust="spacing" textLength="152" x="36" y="440.8467">SingleInputTemplate</text><line style="stroke:#181818;stroke-width:0.5;" x1="8" x2="190" y1="452" y2="452"/><line style="stroke:#181818;stroke-width:0.5;" x1="8" x2="190" y1="460" y2="460"/></g><!--MD5=[c1f59655be559e0ed59c1089679d6b54]
class SelectSingleInputTemplate--><g id="elem_SelectSingleInputTemplate"><rect codeLine="14" fill="#F1F1F1" height="64.2969" id="SelectSingleInputTemplate" rx="2.5" ry="2.5" style="stroke:#181818;stroke-width:0.5;" width="232" x="226" y="412"/><ellipse cx="241.9" cy="428" fill="#ADD1B2" rx="11" ry="11" style="stroke:#181818;stroke-width:1.0;"/><path d="M244.2438,423.6719 C243.3063,423.2344 242.7125,423.0938 241.8375,423.0938 C239.2125,423.0938 237.2125,425.1719 237.2125,427.8906 L237.2125,429.0156 C237.2125,431.5938 239.3219,433.4844 242.2125,433.4844 C243.4313,433.4844 244.5875,433.1875 245.3375,432.6406 C245.9156,432.2344 246.2438,431.7813 246.2438,431.3906 C246.2438,430.9375 245.8531,430.5469 245.3844,430.5469 C245.1656,430.5469 244.9625,430.625 244.775,430.8125 C244.3219,431.2969 244.3219,431.2969 244.1344,431.3906 C243.7125,431.6563 243.025,431.7813 242.2594,431.7813 C240.2125,431.7813 238.9156,430.6875 238.9156,428.9844 L238.9156,427.8906 C238.9156,426.1094 240.1656,424.7969 241.9,424.7969 C242.4781,424.7969 243.0875,424.9531 243.5563,425.2031 C244.0406,425.4844 244.2125,425.7031 244.3063,426.1094 C244.3688,426.5156 244.4,426.6406 244.5406,426.7656 C244.6813,426.9063 244.9156,427.0156 245.1344,427.0156 C245.4,427.0156 245.6656,426.875 245.8375,426.6563 C245.9469,426.5 245.9781,426.3125 245.9781,425.8906 L245.9781,424.4688 C245.9781,424.0313 245.9625,423.9063 245.8688,423.75 C245.7125,423.4844 245.4313,423.3438 245.1344,423.3438 C244.8375,423.3438 244.6344,423.4375 244.4156,423.75 L244.2438,423.6719 Z " fill="#000000"/><text fill="#000000" font-family="sans-serif" font-size="14" lengthAdjust="spacing" textLength="198" x="256.1" y="432.8467">SelectSingleInputTemplate</text><line style="stroke:#181818;stroke-width:0.5;" x1="227" x2="457" y1="444" y2="444"/><rect fill="none" height="6" style="stroke:#C82930;stroke-width:1.0;" width="6" x="234" y="452"/><text fill="#000000" font-family="sans-serif" font-size="14" lengthAdjust="spacing" textLength="206" x="246" y="460.9951">allowedValues: List&lt;Object&gt;</text><line style="stroke:#181818;stroke-width:0.5;" x1="227" x2="457" y1="468.2969" y2="468.2969"/></g><!--MD5=[85a38a240a7b47261bd199c2c42550f0]
class MultiInputTemplate--><g id="elem_MultiInputTemplate"><rect codeLine="17" fill="#F1F1F1" height="48" id="MultiInputTemplate" rx="2.5" ry="2.5" style="stroke:#181818;stroke-width:0.5;" width="175" x="493.5" y="420"/><ellipse cx="508.5" cy="436" fill="#ADD1B2" rx="11" ry="11" style="stroke:#181818;stroke-width:1.0;"/><path d="M510.8438,431.6719 C509.9063,431.2344 509.3125,431.0938 508.4375,431.0938 C505.8125,431.0938 503.8125,433.1719 503.8125,435.8906 L503.8125,437.0156 C503.8125,439.5938 505.9219,441.4844 508.8125,441.4844 C510.0313,441.4844 511.1875,441.1875 511.9375,440.6406 C512.5156,440.2344 512.8438,439.7813 512.8438,439.3906 C512.8438,438.9375 512.4531,438.5469 511.9844,438.5469 C511.7656,438.5469 511.5625,438.625 511.375,438.8125 C510.9219,439.2969 510.9219,439.2969 510.7344,439.3906 C510.3125,439.6563 509.625,439.7813 508.8594,439.7813 C506.8125,439.7813 505.5156,438.6875 505.5156,436.9844 L505.5156,435.8906 C505.5156,434.1094 506.7656,432.7969 508.5,432.7969 C509.0781,432.7969 509.6875,432.9531 510.1563,433.2031 C510.6406,433.4844 510.8125,433.7031 510.9063,434.1094 C510.9688,434.5156 511,434.6406 511.1406,434.7656 C511.2813,434.9063 511.5156,435.0156 511.7344,435.0156 C512,435.0156 512.2656,434.875 512.4375,434.6563 C512.5469,434.5 512.5781,434.3125 512.5781,433.8906 L512.5781,432.4688 C512.5781,432.0313 512.5625,431.9063 512.4688,431.75 C512.3125,431.4844 512.0313,431.3438 511.7344,431.3438 C511.4375,431.3438 511.2344,431.4375 511.0156,431.75 L510.8438,431.6719 Z " fill="#000000"/><text fill="#000000" font-family="sans-serif" font-size="14" lengthAdjust="spacing" textLength="143" x="522.5" y="440.8467">MultiInputTemplate</text><line style="stroke:#181818;stroke-width:0.5;" x1="494.5" x2="667.5" y1="452" y2="452"/><line style="stroke:#181818;stroke-width:0.5;" x1="494.5" x2="667.5" y1="460" y2="460"/></g><!--MD5=[b74a35a2ae6d03d2d93242cdda69831f]
class SelectMultiInputTemplate--><g id="elem_SelectMultiInputTemplate"><rect codeLine="19" fill="#F1F1F1" height="64.2969" id="SelectMultiInputTemplate" rx="2.5" ry="2.5" style="stroke:#181818;stroke-width:0.5;" width="232" x="704" y="412"/><ellipse cx="723.95" cy="428" fill="#ADD1B2" rx="11" ry="11" style="stroke:#181818;stroke-width:1.0;"/><path d="M726.2938,423.6719 C725.3563,423.2344 724.7625,423.0938 723.8875,423.0938 C721.2625,423.0938 719.2625,425.1719 719.2625,427.8906 L719.2625,429.0156 C719.2625,431.5938 721.3719,433.4844 724.2625,433.4844 C725.4813,433.4844 726.6375,433.1875 727.3875,432.6406 C727.9656,432.2344 728.2938,431.7813 728.2938,431.3906 C728.2938,430.9375 727.9031,430.5469 727.4344,430.5469 C727.2156,430.5469 727.0125,430.625 726.825,430.8125 C726.3719,431.2969 726.3719,431.2969 726.1844,431.3906 C725.7625,431.6563 725.075,431.7813 724.3094,431.7813 C722.2625,431.7813 720.9656,430.6875 720.9656,428.9844 L720.9656,427.8906 C720.9656,426.1094 722.2156,424.7969 723.95,424.7969 C724.5281,424.7969 725.1375,424.9531 725.6063,425.2031 C726.0906,425.4844 726.2625,425.7031 726.3563,426.1094 C726.4188,426.5156 726.45,426.6406 726.5906,426.7656 C726.7313,426.9063 726.9656,427.0156 727.1844,427.0156 C727.45,427.0156 727.7156,426.875 727.8875,426.6563 C727.9969,426.5 728.0281,426.3125 728.0281,425.8906 L728.0281,424.4688 C728.0281,424.0313 728.0125,423.9063 727.9188,423.75 C727.7625,423.4844 727.4813,423.3438 727.1844,423.3438 C726.8875,423.3438 726.6844,423.4375 726.4656,423.75 L726.2938,423.6719 Z " fill="#000000"/><text fill="#000000" font-family="sans-serif" font-size="14" lengthAdjust="spacing" textLength="189" x="739.05" y="432.8467">SelectMultiInputTemplate</text><line style="stroke:#181818;stroke-width:0.5;" x1="705" x2="935" y1="444" y2="444"/><rect fill="none" height="6" style="stroke:#C82930;stroke-width:1.0;" width="6" x="712" y="452"/><text fill="#000000" font-family="sans-serif" font-size="14" lengthAdjust="spacing" textLength="206" x="724" y="460.9951">allowedValues: List&lt;Object&gt;</text><line style="stroke:#181818;stroke-width:0.5;" x1="705" x2="935" y1="468.2969" y2="468.2969"/></g><!--MD5=[689506c3d8737445d0b66272cb998244]
class SingleInput--><g id="elem_SingleInput"><rect codeLine="23" fill="#F1F1F1" height="64.2969" id="SingleInput" rx="2.5" ry="2.5" style="stroke:#181818;stroke-width:0.5;" width="121" x="38.5" y="536"/><ellipse cx="56.65" cy="552" fill="#ADD1B2" rx="11" ry="11" style="stroke:#181818;stroke-width:1.0;"/><path d="M58.9938,547.6719 C58.0563,547.2344 57.4625,547.0938 56.5875,547.0938 C53.9625,547.0938 51.9625,549.1719 51.9625,551.8906 L51.9625,553.0156 C51.9625,555.5938 54.0719,557.4844 56.9625,557.4844 C58.1813,557.4844 59.3375,557.1875 60.0875,556.6406 C60.6656,556.2344 60.9938,555.7813 60.9938,555.3906 C60.9938,554.9375 60.6031,554.5469 60.1344,554.5469 C59.9156,554.5469 59.7125,554.625 59.525,554.8125 C59.0719,555.2969 59.0719,555.2969 58.8844,555.3906 C58.4625,555.6563 57.775,555.7813 57.0094,555.7813 C54.9625,555.7813 53.6656,554.6875 53.6656,552.9844 L53.6656,551.8906 C53.6656,550.1094 54.9156,548.7969 56.65,548.7969 C57.2281,548.7969 57.8375,548.9531 58.3063,549.2031 C58.7906,549.4844 58.9625,549.7031 59.0563,550.1094 C59.1188,550.5156 59.15,550.6406 59.2906,550.7656 C59.4313,550.9063 59.6656,551.0156 59.8844,551.0156 C60.15,551.0156 60.4156,550.875 60.5875,550.6563 C60.6969,550.5 60.7281,550.3125 60.7281,549.8906 L60.7281,548.4688 C60.7281,548.0313 60.7125,547.9063 60.6188,547.75 C60.4625,547.4844 60.1813,547.3438 59.8844,547.3438 C59.5875,547.3438 59.3844,547.4375 59.1656,547.75 L58.9938,547.6719 Z " fill="#000000"/><text fill="#000000" font-family="sans-serif" font-size="14" lengthAdjust="spacing" textLength="82" x="71.35" y="556.8467">SingleInput</text><line style="stroke:#181818;stroke-width:0.5;" x1="39.5" x2="158.5" y1="568" y2="568"/><rect fill="none" height="6" style="stroke:#C82930;stroke-width:1.0;" width="6" x="46.5" y="576"/><text fill="#000000" font-family="sans-serif" font-size="14" lengthAdjust="spacing" textLength="95" x="58.5" y="584.9951">value: Object</text><line style="stroke:#181818;stroke-width:0.5;" x1="39.5" x2="158.5" y1="592.2969" y2="592.2969"/></g><!--MD5=[543a8c81f64f84ca4561c2c0baa4a624]
class SelectSingleInput--><g id="elem_SelectSingleInput"><rect codeLine="26" fill="#F1F1F1" height="64.2969" id="SelectSingleInput" rx="2.5" ry="2.5" style="stroke:#181818;stroke-width:0.5;" width="160" x="262" y="536"/><ellipse cx="277" cy="552" fill="#ADD1B2" rx="11" ry="11" style="stroke:#181818;stroke-width:1.0;"/><path d="M279.3438,547.6719 C278.4063,547.2344 277.8125,547.0938 276.9375,547.0938 C274.3125,547.0938 272.3125,549.1719 272.3125,551.8906 L272.3125,553.0156 C272.3125,555.5938 274.4219,557.4844 277.3125,557.4844 C278.5313,557.4844 279.6875,557.1875 280.4375,556.6406 C281.0156,556.2344 281.3438,555.7813 281.3438,555.3906 C281.3438,554.9375 280.9531,554.5469 280.4844,554.5469 C280.2656,554.5469 280.0625,554.625 279.875,554.8125 C279.4219,555.2969 279.4219,555.2969 279.2344,555.3906 C278.8125,555.6563 278.125,555.7813 277.3594,555.7813 C275.3125,555.7813 274.0156,554.6875 274.0156,552.9844 L274.0156,551.8906 C274.0156,550.1094 275.2656,548.7969 277,548.7969 C277.5781,548.7969 278.1875,548.9531 278.6563,549.2031 C279.1406,549.4844 279.3125,549.7031 279.4063,550.1094 C279.4688,550.5156 279.5,550.6406 279.6406,550.7656 C279.7813,550.9063 280.0156,551.0156 280.2344,551.0156 C280.5,551.0156 280.7656,550.875 280.9375,550.6563 C281.0469,550.5 281.0781,550.3125 281.0781,549.8906 L281.0781,548.4688 C281.0781,548.0313 281.0625,547.9063 280.9688,547.75 C280.8125,547.4844 280.5313,547.3438 280.2344,547.3438 C279.9375,547.3438 279.7344,547.4375 279.5156,547.75 L279.3438,547.6719 Z " fill="#000000"/><text fill="#000000" font-family="sans-serif" font-size="14" lengthAdjust="spacing" textLength="128" x="291" y="556.8467">SelectSingleInput</text><line style="stroke:#181818;stroke-width:0.5;" x1="263" x2="421" y1="568" y2="568"/><rect fill="none" height="6" style="stroke:#C82930;stroke-width:1.0;" width="6" x="270" y="576"/><text fill="#000000" font-family="sans-serif" font-size="14" lengthAdjust="spacing" textLength="95" x="282" y="584.9951">value: Object</text><line style="stroke:#181818;stroke-width:0.5;" x1="263" x2="421" y1="592.2969" y2="592.2969"/></g><!--MD5=[e43b71ee0969e1512636a37bda072c3a]
class MultiInput--><g id="elem_MultiInput"><rect codeLine="29" fill="#F1F1F1" height="64.2969" id="MultiInput" rx="2.5" ry="2.5" style="stroke:#181818;stroke-width:0.5;" width="176" x="493" y="536"/><ellipse cx="540.25" cy="552" fill="#ADD1B2" rx="11" ry="11" style="stroke:#181818;stroke-width:1.0;"/><path d="M542.5938,547.6719 C541.6563,547.2344 541.0625,547.0938 540.1875,547.0938 C537.5625,547.0938 535.5625,549.1719 535.5625,551.8906 L535.5625,553.0156 C535.5625,555.5938 537.6719,557.4844 540.5625,557.4844 C541.7813,557.4844 542.9375,557.1875 543.6875,556.6406 C544.2656,556.2344 544.5938,555.7813 544.5938,555.3906 C544.5938,554.9375 544.2031,554.5469 543.7344,554.5469 C543.5156,554.5469 543.3125,554.625 543.125,554.8125 C542.6719,555.2969 542.6719,555.2969 542.4844,555.3906 C542.0625,555.6563 541.375,555.7813 540.6094,555.7813 C538.5625,555.7813 537.2656,554.6875 537.2656,552.9844 L537.2656,551.8906 C537.2656,550.1094 538.5156,548.7969 540.25,548.7969 C540.8281,548.7969 541.4375,548.9531 541.9063,549.2031 C542.3906,549.4844 542.5625,549.7031 542.6563,550.1094 C542.7188,550.5156 542.75,550.6406 542.8906,550.7656 C543.0313,550.9063 543.2656,551.0156 543.4844,551.0156 C543.75,551.0156 544.0156,550.875 544.1875,550.6563 C544.2969,550.5 544.3281,550.3125 544.3281,549.8906 L544.3281,548.4688 C544.3281,548.0313 544.3125,547.9063 544.2188,547.75 C544.0625,547.4844 543.7813,547.3438 543.4844,547.3438 C543.1875,547.3438 542.9844,547.4375 542.7656,547.75 L542.5938,547.6719 Z " fill="#000000"/><text fill="#000000" font-family="sans-serif" font-size="14" lengthAdjust="spacing" textLength="73" x="560.75" y="556.8467">MultiInput</text><line style="stroke:#181818;stroke-width:0.5;" x1="494" x2="668" y1="568" y2="568"/><rect fill="none" height="6" style="stroke:#C82930;stroke-width:1.0;" width="6" x="501" y="576"/><text fill="#000000" font-family="sans-serif" font-size="14" lengthAdjust="spacing" textLength="150" x="513" y="584.9951">values: List&lt;Object&gt;</text><line style="stroke:#181818;stroke-width:0.5;" x1="494" x2="668" y1="592.2969" y2="592.2969"/></g><!--MD5=[f1a5928725d2568b9e86678e135bae2d]
class SelectMultiInput--><g id="elem_SelectMultiInput"><rect codeLine="32" fill="#F1F1F1" height="64.2969" id="SelectMultiInput" rx="2.5" ry="2.5" style="stroke:#181818;stroke-width:0.5;" width="176" x="732" y="536"/><ellipse cx="758.25" cy="552" fill="#ADD1B2" rx="11" ry="11" style="stroke:#181818;stroke-width:1.0;"/><path d="M760.5938,547.6719 C759.6563,547.2344 759.0625,547.0938 758.1875,547.0938 C755.5625,547.0938 753.5625,549.1719 753.5625,551.8906 L753.5625,553.0156 C753.5625,555.5938 755.6719,557.4844 758.5625,557.4844 C759.7813,557.4844 760.9375,557.1875 761.6875,556.6406 C762.2656,556.2344 762.5938,555.7813 762.5938,555.3906 C762.5938,554.9375 762.2031,554.5469 761.7344,554.5469 C761.5156,554.5469 761.3125,554.625 761.125,554.8125 C760.6719,555.2969 760.6719,555.2969 760.4844,555.3906 C760.0625,555.6563 759.375,555.7813 758.6094,555.7813 C756.5625,555.7813 755.2656,554.6875 755.2656,552.9844 L755.2656,551.8906 C755.2656,550.1094 756.5156,548.7969 758.25,548.7969 C758.8281,548.7969 759.4375,548.9531 759.9063,549.2031 C760.3906,549.4844 760.5625,549.7031 760.6563,550.1094 C760.7188,550.5156 760.75,550.6406 760.8906,550.7656 C761.0313,550.9063 761.2656,551.0156 761.4844,551.0156 C761.75,551.0156 762.0156,550.875 762.1875,550.6563 C762.2969,550.5 762.3281,550.3125 762.3281,549.8906 L762.3281,548.4688 C762.3281,548.0313 762.3125,547.9063 762.2188,547.75 C762.0625,547.4844 761.7813,547.3438 761.4844,547.3438 C761.1875,547.3438 760.9844,547.4375 760.7656,547.75 L760.5938,547.6719 Z " fill="#000000"/><text fill="#000000" font-family="sans-serif" font-size="14" lengthAdjust="spacing" textLength="119" x="774.75" y="556.8467">SelectMultiInput</text><line style="stroke:#181818;stroke-width:0.5;" x1="733" x2="907" y1="568" y2="568"/><rect fill="none" height="6" style="stroke:#C82930;stroke-width:1.0;" width="6" x="740" y="576"/><text fill="#000000" font-family="sans-serif" font-size="14" lengthAdjust="spacing" textLength="150" x="752" y="584.9951">values: List&lt;Object&gt;</text><line style="stroke:#181818;stroke-width:0.5;" x1="733" x2="907" y1="592.2969" y2="592.2969"/></g><!--MD5=[3e31271b831a91acee00f4db0f09d10c]
reverse link BaseInput to SingleInputTemplate--><g id="link_BaseInput_SingleInputTemplate"><path codeLine="37" d="M318.462,359.035 C263.017,380.248 202.524,403.392 159.117,420 " fill="none" id="BaseInput-backto-SingleInputTemplate" style="stroke:#181818;stroke-width:1.0;"/><polygon fill="none" points="316.252,352.385,337.433,351.776,321.254,365.461,316.252,352.385" style="stroke:#181818;stroke-width:1.0;"/></g><!--MD5=[2d1c4237ed50fc12f73de5458fc94094]
reverse link BaseInput to SelectSingleInputTemplate--><g id="link_BaseInput_SelectSingleInputTemplate"><path codeLine="38" d="M406.607,367.807 C393.49,383.073 380.04,398.727 368.831,411.772 " fill="none" id="BaseInput-backto-SelectSingleInputTemplate" style="stroke:#181818;stroke-width:1.0;"/><polygon fill="none" points="401.704,362.772,420.047,352.164,412.322,371.895,401.704,362.772" style="stroke:#181818;stroke-width:1.0;"/></g><!--MD5=[a43c4f827dff781fc3464a4c0977c267]
reverse link BaseInput to MultiInputTemplate--><g id="link_BaseInput_MultiInputTemplate"><path codeLine="39" d="M515.619,367.539 C531.747,386.154 548.398,405.372 560.86,419.755 " fill="none" id="BaseInput-backto-MultiInputTemplate" style="stroke:#181818;stroke-width:1.0;"/><polygon fill="none" points="510.103,371.863,502.297,352.164,520.684,362.696,510.103,371.863" style="stroke:#181818;stroke-width:1.0;"/></g><!--MD5=[6575c214ff0ca70fd86cdc470c421cdb]
reverse link BaseInput to SelectMultiInputTemplate--><g id="link_BaseInput_SelectMultiInputTemplate"><path codeLine="40" d="M603.211,359.364 C649.532,377.234 699.318,396.442 739.484,411.938 " fill="none" id="BaseInput-backto-SelectMultiInputTemplate" style="stroke:#181818;stroke-width:1.0;"/><polygon fill="none" points="600.436,365.797,584.296,352.067,605.475,352.735,600.436,365.797" style="stroke:#181818;stroke-width:1.0;"/></g><!--MD5=[e7f23823fc7fee6720d0478e27e5db17]
reverse link SingleInputTemplate to SingleInput--><g id="link_SingleInputTemplate_SingleInput"><path codeLine="42" d="M99,488.335 C99,503.9155 99,521.179 99,535.5547 " fill="none" id="SingleInputTemplate-backto-SingleInput" style="stroke:#181818;stroke-width:1.0;"/><polygon fill="none" points="92.0001,488.234,99,468.234,106.0001,488.234,92.0001,488.234" style="stroke:#181818;stroke-width:1.0;"/></g><!--MD5=[0bfaf8940684f899d1ce56bd76b8065e]
reverse link SelectSingleInputTemplate to SelectSingleInput--><g id="link_SelectSingleInputTemplate_SelectSingleInput"><path codeLine="43" d="M342,496.341 C342,509.8065 342,523.9163 342,535.9554 " fill="none" id="SelectSingleInputTemplate-backto-SelectSingleInput" style="stroke:#181818;stroke-width:1.0;"/><polygon fill="none" points="335,496.101,342,476.101,349,496.101,335,496.101" style="stroke:#181818;stroke-width:1.0;"/></g><!--MD5=[1c8a4ca34224f5d3fbb7d241d658f444]
reverse link MultiInputTemplate to MultiInput--><g id="link_MultiInputTemplate_MultiInput"><path codeLine="44" d="M581,488.335 C581,503.9155 581,521.179 581,535.5547 " fill="none" id="MultiInputTemplate-backto-MultiInput" style="stroke:#181818;stroke-width:1.0;"/><polygon fill="none" points="574,488.234,581,468.234,588,488.234,574,488.234" style="stroke:#181818;stroke-width:1.0;"/></g><!--MD5=[c10dd994ad9fe22ba18b9140d825f41f]
reverse link SelectMultiInputTemplate to SelectMultiInput--><g id="link_SelectMultiInputTemplate_SelectMultiInput"><path codeLine="45" d="M820,496.341 C820,509.8065 820,523.9163 820,535.9554 " fill="none" id="SelectMultiInputTemplate-backto-SelectMultiInput" style="stroke:#181818;stroke-width:1.0;"/><polygon fill="none" points="813,496.101,820,476.101,827,496.101,813,496.101" style="stroke:#181818;stroke-width:1.0;"/></g><!--MD5=[0a204be54f171e365b0e00ec0cd0f85b]
link ProjectReport to Group--><g id="link_ProjectReport_Group"><path codeLine="47" d="M461,71.101 C461,89.457 461,112.61 461,130.955 " fill="none" id="ProjectReport-Group" style="stroke:#181818;stroke-width:1.0;"/><text fill="#000000" font-family="sans-serif" font-size="13" lengthAdjust="spacing" textLength="8" x="452.175" y="91.3187">1</text><text fill="#000000" font-family="sans-serif" font-size="13" lengthAdjust="spacing" textLength="23" x="435.6281" y="119.8488">1..*</text></g><!--MD5=[48db203b5e5c1765fe386771e89e7e20]
link Group to BaseInput--><g id="link_Group_BaseInput"><path codeLine="48" d="M461,195.082 C461,212.708 461,235.131 461,254.926 " fill="none" id="Group-BaseInput" style="stroke:#181818;stroke-width:1.0;"/><text fill="#000000" font-family="sans-serif" font-size="13" lengthAdjust="spacing" textLength="8" x="452.175" y="215.2958">1</text><text fill="#000000" font-family="sans-serif" font-size="13" lengthAdjust="spacing" textLength="23" x="436.3109" y="243.7748">0..*</text></g><!--MD5=[e005b9529edd2e922678529c5b0fb7e6]
@startuml
Class ProjectReport{
- groups: Map<String, Group>
}
Class Group{
- fields: Map<String, BaseInput>
}
abstract Class BaseInput{
- type: Datatype
- inputType: InputType
- modifiers: Set<InputModifier>
}
Class SingleInputTemplate{
}
Class SelectSingleInputTemplate{
- allowedValues: List<Object>
}
Class MultiInputTemplate{
}
Class SelectMultiInputTemplate{
- allowedValues: List<Object>
}

Class SingleInput{
- value: Object
}
Class SelectSingleInput{
- value: Object
}
Class MultiInput{
- values: List<Object>
}
Class SelectMultiInput{
- values: List<Object>
}


BaseInput <|- - SingleInputTemplate
BaseInput <|- - SelectSingleInputTemplate
BaseInput <|- - MultiInputTemplate
BaseInput <|- - SelectMultiInputTemplate

SingleInputTemplate <|- - SingleInput
SelectSingleInputTemplate <|- - SelectSingleInput
MultiInputTemplate <|- - MultiInput
SelectMultiInputTemplate <|- - SelectMultiInput

ProjectReport "1" - - "1..*" Group
Group "1" - - "0..*" BaseInput
@enduml

PlantUML version 1.2022.6beta5(Unknown compile time)
(GPL source distribution)
Java Runtime: Java(TM) SE Runtime Environment
JVM: Java HotSpot(TM) 64-Bit Server VM
Default Encoding: UTF-8
Language: en
Country: US
--></g></svg>