<?xml version="1.0" encoding="UTF-8" standalone="no"?><svg xmlns="http://www.w3.org/2000/svg" xmlns:xlink="http://www.w3.org/1999/xlink" contentStyleType="text/css" height="483px" preserveAspectRatio="none" style="width:803px;height:483px;background:#FFFFFF;" version="1.1" viewBox="0 0 803 483" width="803px" zoomAndPan="magnify"><defs/><g><!--MD5=[df3771a4751325c6d94458f5b09c1010]
class ProjectReportTemplate--><g id="elem_ProjectReportTemplate"><rect codeLine="1" fill="#F1F1F1" height="64.2969" id="ProjectReportTemplate" rx="2.5" ry="2.5" style="stroke:#181818;stroke-width:0.5;" width="232" x="258" y="7"/><ellipse cx="285.15" cy="23" fill="#ADD1B2" rx="11" ry="11" style="stroke:#181818;stroke-width:1.0;"/><path d="M287.4938,18.6719 C286.5563,18.2344 285.9625,18.0938 285.0875,18.0938 C282.4625,18.0938 280.4625,20.1719 280.4625,22.8906 L280.4625,24.0156 C280.4625,26.5938 282.5719,28.4844 285.4625,28.4844 C286.6813,28.4844 287.8375,28.1875 288.5875,27.6406 C289.1656,27.2344 289.4938,26.7813 289.4938,26.3906 C289.4938,25.9375 289.1031,25.5469 288.6344,25.5469 C288.4156,25.5469 288.2125,25.625 288.025,25.8125 C287.5719,26.2969 287.5719,26.2969 287.3844,26.3906 C286.9625,26.6563 286.275,26.7813 285.5094,26.7813 C283.4625,26.7813 282.1656,25.6875 282.1656,23.9844 L282.1656,22.8906 C282.1656,21.1094 283.4156,19.7969 285.15,19.7969 C285.7281,19.7969 286.3375,19.9531 286.8063,20.2031 C287.2906,20.4844 287.4625,20.7031 287.5563,21.1094 C287.6188,21.5156 287.65,21.6406 287.7906,21.7656 C287.9313,21.9063 288.1656,22.0156 288.3844,22.0156 C288.65,22.0156 288.9156,21.875 289.0875,21.6563 C289.1969,21.5 289.2281,21.3125 289.2281,20.8906 L289.2281,19.4688 C289.2281,19.0313 289.2125,18.9063 289.1188,18.75 C288.9625,18.4844 288.6813,18.3438 288.3844,18.3438 C288.0875,18.3438 287.8844,18.4375 287.6656,18.75 L287.4938,18.6719 Z " fill="#000000"/><text fill="#000000" font-family="sans-serif" font-size="14" lengthAdjust="spacing" textLength="173" x="301.85" y="27.8467">ProjectReportTemplate</text><line style="stroke:#181818;stroke-width:0.5;" x1="259" x2="489" y1="39" y2="39"/><rect fill="none" height="6" style="stroke:#C82930;stroke-width:1.0;" width="6" x="266" y="47"/><text fill="#000000" font-family="sans-serif" font-size="14" lengthAdjust="spacing" textLength="206" x="278" y="55.9951">groups: Map&lt;String, Group&gt;</text><line style="stroke:#181818;stroke-width:0.5;" x1="259" x2="489" y1="63.2969" y2="63.2969"/></g><!--MD5=[41314a0efc36828092cff9ebad2fcafd]
class Group--><g id="elem_Group"><rect codeLine="4" fill="#F1F1F1" height="64.2969" id="Group" rx="2.5" ry="2.5" style="stroke:#181818;stroke-width:0.5;" width="250" x="249" y="131"/><ellipse cx="347.75" cy="147" fill="#ADD1B2" rx="11" ry="11" style="stroke:#181818;stroke-width:1.0;"/><path d="M350.0938,142.6719 C349.1563,142.2344 348.5625,142.0938 347.6875,142.0938 C345.0625,142.0938 343.0625,144.1719 343.0625,146.8906 L343.0625,148.0156 C343.0625,150.5938 345.1719,152.4844 348.0625,152.4844 C349.2813,152.4844 350.4375,152.1875 351.1875,151.6406 C351.7656,151.2344 352.0938,150.7813 352.0938,150.3906 C352.0938,149.9375 351.7031,149.5469 351.2344,149.5469 C351.0156,149.5469 350.8125,149.625 350.625,149.8125 C350.1719,150.2969 350.1719,150.2969 349.9844,150.3906 C349.5625,150.6563 348.875,150.7813 348.1094,150.7813 C346.0625,150.7813 344.7656,149.6875 344.7656,147.9844 L344.7656,146.8906 C344.7656,145.1094 346.0156,143.7969 347.75,143.7969 C348.3281,143.7969 348.9375,143.9531 349.4063,144.2031 C349.8906,144.4844 350.0625,144.7031 350.1563,145.1094 C350.2188,145.5156 350.25,145.6406 350.3906,145.7656 C350.5313,145.9063 350.7656,146.0156 350.9844,146.0156 C351.25,146.0156 351.5156,145.875 351.6875,145.6563 C351.7969,145.5 351.8281,145.3125 351.8281,144.8906 L351.8281,143.4688 C351.8281,143.0313 351.8125,142.9063 351.7188,142.75 C351.5625,142.4844 351.2813,142.3438 350.9844,142.3438 C350.6875,142.3438 350.4844,142.4375 350.2656,142.75 L350.0938,142.6719 Z " fill="#000000"/><text fill="#000000" font-family="sans-serif" font-size="14" lengthAdjust="spacing" textLength="44" x="368.25" y="151.8467">Group</text><line style="stroke:#181818;stroke-width:0.5;" x1="250" x2="498" y1="163" y2="163"/><rect fill="none" height="6" style="stroke:#C82930;stroke-width:1.0;" width="6" x="257" y="171"/><text fill="#000000" font-family="sans-serif" font-size="14" lengthAdjust="spacing" textLength="224" x="269" y="179.9951">fields: Map&lt;String, BaseInput&gt;</text><line style="stroke:#181818;stroke-width:0.5;" x1="250" x2="498" y1="187.2969" y2="187.2969"/></g><!--MD5=[dbc8686727f9c245d23b6d04ab358f14]
class BaseInput--><g id="elem_BaseInput"><rect codeLine="7" fill="#F1F1F1" height="96.8906" id="BaseInput" rx="2.5" ry="2.5" style="stroke:#181818;stroke-width:0.5;" width="247" x="250.5" y="255"/><ellipse cx="334.25" cy="271" fill="#A9DCDF" rx="11" ry="11" style="stroke:#181818;stroke-width:1.0;"/><path d="M336.3281,272.8125 L336.7188,273.7969 L336.3281,273.7969 C335.875,273.7969 335.7656,273.8125 335.6094,273.9219 C335.3594,274.0781 335.2031,274.3594 335.2031,274.6563 C335.2031,274.9219 335.3438,275.1719 335.5625,275.3281 C335.7031,275.4531 335.9063,275.5 336.3281,275.5 L338.6875,275.5 C339.0469,275.5 339.2656,275.4688 339.4063,275.375 C339.6563,275.2344 339.8125,274.9375 339.8125,274.6563 C339.8125,274.375 339.6719,274.125 339.4531,273.9688 C339.2813,273.8281 339.125,273.7969 338.6563,273.7969 L335.2656,265.5938 L331.5938,265.5938 C331.1406,265.5938 331.0156,265.6094 330.8594,265.7031 C330.6094,265.875 330.4531,266.1563 330.4531,266.4375 C330.4531,266.7188 330.5938,266.9688 330.8125,267.1406 C330.9844,267.25 331.1563,267.2813 331.5938,267.2813 L332.6719,267.2813 L330.0313,273.7969 C329.6094,273.7969 329.4531,273.8125 329.2969,273.9219 C329.0469,274.0781 328.8906,274.3594 328.8906,274.6563 C328.8906,275.2188 329.2656,275.5 330.0156,275.5 L332.2813,275.5 C332.6406,275.5 332.8594,275.4688 332.9844,275.375 C333.25,275.2344 333.3906,274.9375 333.3906,274.6563 C333.3906,274.375 333.2656,274.125 333.0469,273.9531 C332.875,273.8281 332.7344,273.7969 332.2813,273.7969 L331.8906,273.7969 L332.2813,272.8125 L336.3281,272.8125 Z M335.625,271.1094 L332.9531,271.1094 L334.2969,267.8438 L335.625,271.1094 Z " fill="#000000"/><text fill="#000000" font-family="sans-serif" font-size="14" font-style="italic" lengthAdjust="spacing" textLength="71" x="354.75" y="275.8467">BaseInput</text><line style="stroke:#181818;stroke-width:0.5;" x1="251.5" x2="496.5" y1="287" y2="287"/><rect fill="none" height="6" style="stroke:#C82930;stroke-width:1.0;" width="6" x="258.5" y="295"/><text fill="#000000" font-family="sans-serif" font-size="14" lengthAdjust="spacing" textLength="111" x="270.5" y="303.9951">type: Datatype</text><rect fill="none" height="6" style="stroke:#C82930;stroke-width:1.0;" width="6" x="258.5" y="311.2969"/><text fill="#000000" font-family="sans-serif" font-size="14" lengthAdjust="spacing" textLength="157" x="270.5" y="320.292">inputType: InputType</text><rect fill="none" height="6" style="stroke:#C82930;stroke-width:1.0;" width="6" x="258.5" y="327.5938"/><text fill="#000000" font-family="sans-serif" font-size="14" lengthAdjust="spacing" textLength="221" x="270.5" y="336.5889">modifiers: Set&lt;InputModifier&gt;</text><line style="stroke:#181818;stroke-width:0.5;" x1="251.5" x2="496.5" y1="343.8906" y2="343.8906"/></g><!--MD5=[689506c3d8737445d0b66272cb998244]
class SingleInput--><g id="elem_SingleInput"><rect codeLine="12" fill="#F1F1F1" height="48" id="SingleInput" rx="2.5" ry="2.5" style="stroke:#181818;stroke-width:0.5;" width="114" x="7" y="420"/><ellipse cx="22" cy="436" fill="#ADD1B2" rx="11" ry="11" style="stroke:#181818;stroke-width:1.0;"/><path d="M24.3438,431.6719 C23.4063,431.2344 22.8125,431.0938 21.9375,431.0938 C19.3125,431.0938 17.3125,433.1719 17.3125,435.8906 L17.3125,437.0156 C17.3125,439.5938 19.4219,441.4844 22.3125,441.4844 C23.5313,441.4844 24.6875,441.1875 25.4375,440.6406 C26.0156,440.2344 26.3438,439.7813 26.3438,439.3906 C26.3438,438.9375 25.9531,438.5469 25.4844,438.5469 C25.2656,438.5469 25.0625,438.625 24.875,438.8125 C24.4219,439.2969 24.4219,439.2969 24.2344,439.3906 C23.8125,439.6563 23.125,439.7813 22.3594,439.7813 C20.3125,439.7813 19.0156,438.6875 19.0156,436.9844 L19.0156,435.8906 C19.0156,434.1094 20.2656,432.7969 22,432.7969 C22.5781,432.7969 23.1875,432.9531 23.6563,433.2031 C24.1406,433.4844 24.3125,433.7031 24.4063,434.1094 C24.4688,434.5156 24.5,434.6406 24.6406,434.7656 C24.7813,434.9063 25.0156,435.0156 25.2344,435.0156 C25.5,435.0156 25.7656,434.875 25.9375,434.6563 C26.0469,434.5 26.0781,434.3125 26.0781,433.8906 L26.0781,432.4688 C26.0781,432.0313 26.0625,431.9063 25.9688,431.75 C25.8125,431.4844 25.5313,431.3438 25.2344,431.3438 C24.9375,431.3438 24.7344,431.4375 24.5156,431.75 L24.3438,431.6719 Z " fill="#000000"/><text fill="#000000" font-family="sans-serif" font-size="14" lengthAdjust="spacing" textLength="82" x="36" y="440.8467">SingleInput</text><line style="stroke:#181818;stroke-width:0.5;" x1="8" x2="120" y1="452" y2="452"/><line style="stroke:#181818;stroke-width:0.5;" x1="8" x2="120" y1="460" y2="460"/></g><!--MD5=[543a8c81f64f84ca4561c2c0baa4a624]
class SelectSingleInput--><g id="elem_SelectSingleInput"><rect codeLine="14" fill="#F1F1F1" height="64.2969" id="SelectSingleInput" rx="2.5" ry="2.5" style="stroke:#181818;stroke-width:0.5;" width="232" x="156" y="412"/><ellipse cx="203.75" cy="428" fill="#ADD1B2" rx="11" ry="11" style="stroke:#181818;stroke-width:1.0;"/><path d="M206.0938,423.6719 C205.1563,423.2344 204.5625,423.0938 203.6875,423.0938 C201.0625,423.0938 199.0625,425.1719 199.0625,427.8906 L199.0625,429.0156 C199.0625,431.5938 201.1719,433.4844 204.0625,433.4844 C205.2813,433.4844 206.4375,433.1875 207.1875,432.6406 C207.7656,432.2344 208.0938,431.7813 208.0938,431.3906 C208.0938,430.9375 207.7031,430.5469 207.2344,430.5469 C207.0156,430.5469 206.8125,430.625 206.625,430.8125 C206.1719,431.2969 206.1719,431.2969 205.9844,431.3906 C205.5625,431.6563 204.875,431.7813 204.1094,431.7813 C202.0625,431.7813 200.7656,430.6875 200.7656,428.9844 L200.7656,427.8906 C200.7656,426.1094 202.0156,424.7969 203.75,424.7969 C204.3281,424.7969 204.9375,424.9531 205.4063,425.2031 C205.8906,425.4844 206.0625,425.7031 206.1563,426.1094 C206.2188,426.5156 206.25,426.6406 206.3906,426.7656 C206.5313,426.9063 206.7656,427.0156 206.9844,427.0156 C207.25,427.0156 207.5156,426.875 207.6875,426.6563 C207.7969,426.5 207.8281,426.3125 207.8281,425.8906 L207.8281,424.4688 C207.8281,424.0313 207.8125,423.9063 207.7188,423.75 C207.5625,423.4844 207.2813,423.3438 206.9844,423.3438 C206.6875,423.3438 206.4844,423.4375 206.2656,423.75 L206.0938,423.6719 Z " fill="#000000"/><text fill="#000000" font-family="sans-serif" font-size="14" lengthAdjust="spacing" textLength="128" x="224.25" y="432.8467">SelectSingleInput</text><line style="stroke:#181818;stroke-width:0.5;" x1="157" x2="387" y1="444" y2="444"/><rect fill="none" height="6" style="stroke:#C82930;stroke-width:1.0;" width="6" x="164" y="452"/><text fill="#000000" font-family="sans-serif" font-size="14" lengthAdjust="spacing" textLength="206" x="176" y="460.9951">allowedValues: List&lt;Object&gt;</text><line style="stroke:#181818;stroke-width:0.5;" x1="157" x2="387" y1="468.2969" y2="468.2969"/></g><!--MD5=[e43b71ee0969e1512636a37bda072c3a]
class MultiInput--><g id="elem_MultiInput"><rect codeLine="17" fill="#F1F1F1" height="48" id="MultiInput" rx="2.5" ry="2.5" style="stroke:#181818;stroke-width:0.5;" width="105" x="423.5" y="420"/><ellipse cx="438.5" cy="436" fill="#ADD1B2" rx="11" ry="11" style="stroke:#181818;stroke-width:1.0;"/><path d="M440.8438,431.6719 C439.9063,431.2344 439.3125,431.0938 438.4375,431.0938 C435.8125,431.0938 433.8125,433.1719 433.8125,435.8906 L433.8125,437.0156 C433.8125,439.5938 435.9219,441.4844 438.8125,441.4844 C440.0313,441.4844 441.1875,441.1875 441.9375,440.6406 C442.5156,440.2344 442.8438,439.7813 442.8438,439.3906 C442.8438,438.9375 442.4531,438.5469 441.9844,438.5469 C441.7656,438.5469 441.5625,438.625 441.375,438.8125 C440.9219,439.2969 440.9219,439.2969 440.7344,439.3906 C440.3125,439.6563 439.625,439.7813 438.8594,439.7813 C436.8125,439.7813 435.5156,438.6875 435.5156,436.9844 L435.5156,435.8906 C435.5156,434.1094 436.7656,432.7969 438.5,432.7969 C439.0781,432.7969 439.6875,432.9531 440.1563,433.2031 C440.6406,433.4844 440.8125,433.7031 440.9063,434.1094 C440.9688,434.5156 441,434.6406 441.1406,434.7656 C441.2813,434.9063 441.5156,435.0156 441.7344,435.0156 C442,435.0156 442.2656,434.875 442.4375,434.6563 C442.5469,434.5 442.5781,434.3125 442.5781,433.8906 L442.5781,432.4688 C442.5781,432.0313 442.5625,431.9063 442.4688,431.75 C442.3125,431.4844 442.0313,431.3438 441.7344,431.3438 C441.4375,431.3438 441.2344,431.4375 441.0156,431.75 L440.8438,431.6719 Z " fill="#000000"/><text fill="#000000" font-family="sans-serif" font-size="14" lengthAdjust="spacing" textLength="73" x="452.5" y="440.8467">MultiInput</text><line style="stroke:#181818;stroke-width:0.5;" x1="424.5" x2="527.5" y1="452" y2="452"/><line style="stroke:#181818;stroke-width:0.5;" x1="424.5" x2="527.5" y1="460" y2="460"/></g><!--MD5=[f1a5928725d2568b9e86678e135bae2d]
class SelectMultiInput--><g id="elem_SelectMultiInput"><rect codeLine="19" fill="#F1F1F1" height="64.2969" id="SelectMultiInput" rx="2.5" ry="2.5" style="stroke:#181818;stroke-width:0.5;" width="232" x="564" y="412"/><ellipse cx="616.25" cy="428" fill="#ADD1B2" rx="11" ry="11" style="stroke:#181818;stroke-width:1.0;"/><path d="M618.5938,423.6719 C617.6563,423.2344 617.0625,423.0938 616.1875,423.0938 C613.5625,423.0938 611.5625,425.1719 611.5625,427.8906 L611.5625,429.0156 C611.5625,431.5938 613.6719,433.4844 616.5625,433.4844 C617.7813,433.4844 618.9375,433.1875 619.6875,432.6406 C620.2656,432.2344 620.5938,431.7813 620.5938,431.3906 C620.5938,430.9375 620.2031,430.5469 619.7344,430.5469 C619.5156,430.5469 619.3125,430.625 619.125,430.8125 C618.6719,431.2969 618.6719,431.2969 618.4844,431.3906 C618.0625,431.6563 617.375,431.7813 616.6094,431.7813 C614.5625,431.7813 613.2656,430.6875 613.2656,428.9844 L613.2656,427.8906 C613.2656,426.1094 614.5156,424.7969 616.25,424.7969 C616.8281,424.7969 617.4375,424.9531 617.9063,425.2031 C618.3906,425.4844 618.5625,425.7031 618.6563,426.1094 C618.7188,426.5156 618.75,426.6406 618.8906,426.7656 C619.0313,426.9063 619.2656,427.0156 619.4844,427.0156 C619.75,427.0156 620.0156,426.875 620.1875,426.6563 C620.2969,426.5 620.3281,426.3125 620.3281,425.8906 L620.3281,424.4688 C620.3281,424.0313 620.3125,423.9063 620.2188,423.75 C620.0625,423.4844 619.7813,423.3438 619.4844,423.3438 C619.1875,423.3438 618.9844,423.4375 618.7656,423.75 L618.5938,423.6719 Z " fill="#000000"/><text fill="#000000" font-family="sans-serif" font-size="14" lengthAdjust="spacing" textLength="119" x="636.75" y="432.8467">SelectMultiInput</text><line style="stroke:#181818;stroke-width:0.5;" x1="565" x2="795" y1="444" y2="444"/><rect fill="none" height="6" style="stroke:#C82930;stroke-width:1.0;" width="6" x="572" y="452"/><text fill="#000000" font-family="sans-serif" font-size="14" lengthAdjust="spacing" textLength="206" x="584" y="460.9951">allowedValues: List&lt;Object&gt;</text><line style="stroke:#181818;stroke-width:0.5;" x1="565" x2="795" y1="468.2969" y2="468.2969"/></g><!--MD5=[b5d5783cf880286e8aa4272b5a950d93]
reverse link BaseInput to SingleInput--><g id="link_BaseInput_SingleInput"><path codeLine="23" d="M248.993,360.35 C202.379,381.176 152.002,403.6832 115.606,419.9437 " fill="none" id="BaseInput-backto-SingleInput" style="stroke:#181818;stroke-width:1.0;"/><polygon fill="none" points="246.2,353.931,267.316,352.164,251.911,366.713,246.2,353.931" style="stroke:#181818;stroke-width:1.0;"/></g><!--MD5=[1deddbc3983a297f04bf6421c05dc97c]
reverse link BaseInput to SelectSingleInput--><g id="link_BaseInput_SelectSingleInput"><path codeLine="24" d="M327.022,368.289 C315.892,383.402 304.504,398.8643 294.998,411.7722 " fill="none" id="BaseInput-backto-SelectSingleInput" style="stroke:#181818;stroke-width:1.0;"/><polygon fill="none" points="321.401,364.117,338.897,352.164,332.674,372.419,321.401,364.117" style="stroke:#181818;stroke-width:1.0;"/></g><!--MD5=[eeddcf5ef295c42c9821baf2ec4467f6]
reverse link BaseInput to MultiInput--><g id="link_BaseInput_MultiInput"><path codeLine="25" d="M421.043,368.377 C434.559,386.729 448.447,405.5873 458.881,419.7548 " fill="none" id="BaseInput-backto-MultiInput" style="stroke:#181818;stroke-width:1.0;"/><polygon fill="none" points="415.326,372.419,409.103,352.164,426.599,364.117,415.326,372.419" style="stroke:#181818;stroke-width:1.0;"/></g><!--MD5=[a179fff2ff22ca88d5fbc2115de79456]
reverse link BaseInput to SelectMultiInput--><g id="link_BaseInput_SelectMultiInput"><path codeLine="26" d="M497.53,360.411 C536.388,377.9991 577.882,396.78 611.468,411.9812 " fill="none" id="BaseInput-backto-SelectMultiInput" style="stroke:#181818;stroke-width:1.0;"/><polygon fill="none" points="494.642,366.788,479.308,352.164,500.415,354.034,494.642,366.788" style="stroke:#181818;stroke-width:1.0;"/></g><!--MD5=[580aa0355702093f37b604237bed984a]
link ProjectReportTemplate to Group--><g id="link_ProjectReportTemplate_Group"><path codeLine="28" d="M374,71.101 C374,89.457 374,112.61 374,130.955 " fill="none" id="ProjectReportTemplate-Group" style="stroke:#181818;stroke-width:1.0;"/><text fill="#000000" font-family="sans-serif" font-size="13" lengthAdjust="spacing" textLength="8" x="365.175" y="91.3187">1</text><text fill="#000000" font-family="sans-serif" font-size="13" lengthAdjust="spacing" textLength="23" x="348.6281" y="119.8488">1..*</text></g><!--MD5=[48db203b5e5c1765fe386771e89e7e20]
link Group to BaseInput--><g id="link_Group_BaseInput"><path codeLine="29" d="M374,195.082 C374,212.708 374,235.131 374,254.926 " fill="none" id="Group-BaseInput" style="stroke:#181818;stroke-width:1.0;"/><text fill="#000000" font-family="sans-serif" font-size="13" lengthAdjust="spacing" textLength="8" x="365.175" y="215.2958">1</text><text fill="#000000" font-family="sans-serif" font-size="13" lengthAdjust="spacing" textLength="23" x="349.3109" y="243.7748">0..*</text></g><!--MD5=[b46c4cf5809494c53cf0cc12c7020c4f]
@startuml
Class ProjectReportTemplate{
- groups: Map<String, Group>     
}
Class Group{
- fields: Map<String, BaseInput>     
}
abstract Class BaseInput{
- type: Datatype     
- inputType: InputType
- modifiers: Set<InputModifier>
}
Class SingleInput{     
}
Class SelectSingleInput{
- allowedValues: List<Object>
}
Class MultiInput{    
}
Class SelectMultiInput{
- allowedValues: List<Object>     
}

BaseInput <|- - SingleInput
BaseInput <|- - SelectSingleInput
BaseInput <|- - MultiInput
BaseInput <|- - SelectMultiInput

ProjectReportTemplate "1" - - "1..*" Group
Group "1" - - "0..*" BaseInput
@enduml

PlantUML version 1.2022.6beta5(Unknown compile time)
(GPL source distribution)
Java Runtime: Java(TM) SE Runtime Environment
JVM: Java HotSpot(TM) 64-Bit Server VM
Default Encoding: UTF-8
Language: en
Country: US
--></g></svg>