<?xml version="1.0" encoding="UTF-8" standalone="no"?><svg xmlns="http://www.w3.org/2000/svg" xmlns:xlink="http://www.w3.org/1999/xlink" contentStyleType="text/css" height="499px" preserveAspectRatio="none" style="width:935px;height:499px;background:#FFFFFF;" version="1.1" viewBox="0 0 935 499" width="935px" zoomAndPan="magnify"><defs/><g><!--MD5=[c4c079a038893c355a5af4c3546826a5]
class ProjectReport--><g id="elem_ProjectReport"><rect codeLine="1" fill="#F1F1F1" height="64.2969" id="ProjectReport" rx="2.5" ry="2.5" style="stroke:#181818;stroke-width:0.5;" width="232" x="337" y="7"/><ellipse cx="397.25" cy="23" fill="#ADD1B2" rx="11" ry="11" style="stroke:#181818;stroke-width:1.0;"/><path d="M399.5938,18.6719 C398.6563,18.2344 398.0625,18.0938 397.1875,18.0938 C394.5625,18.0938 392.5625,20.1719 392.5625,22.8906 L392.5625,24.0156 C392.5625,26.5938 394.6719,28.4844 397.5625,28.4844 C398.7813,28.4844 399.9375,28.1875 400.6875,27.6406 C401.2656,27.2344 401.5938,26.7813 401.5938,26.3906 C401.5938,25.9375 401.2031,25.5469 400.7344,25.5469 C400.5156,25.5469 400.3125,25.625 400.125,25.8125 C399.6719,26.2969 399.6719,26.2969 399.4844,26.3906 C399.0625,26.6563 398.375,26.7813 397.6094,26.7813 C395.5625,26.7813 394.2656,25.6875 394.2656,23.9844 L394.2656,22.8906 C394.2656,21.1094 395.5156,19.7969 397.25,19.7969 C397.8281,19.7969 398.4375,19.9531 398.9063,20.2031 C399.3906,20.4844 399.5625,20.7031 399.6563,21.1094 C399.7188,21.5156 399.75,21.6406 399.8906,21.7656 C400.0313,21.9063 400.2656,22.0156 400.4844,22.0156 C400.75,22.0156 401.0156,21.875 401.1875,21.6563 C401.2969,21.5 401.3281,21.3125 401.3281,20.8906 L401.3281,19.4688 C401.3281,19.0313 401.3125,18.9063 401.2188,18.75 C401.0625,18.4844 400.7813,18.3438 400.4844,18.3438 C400.1875,18.3438 399.9844,18.4375 399.7656,18.75 L399.5938,18.6719 Z " fill="#000000"/><text fill="#000000" font-family="sans-serif" font-size="14" lengthAdjust="spacing" textLength="103" x="417.75" y="27.8467">ProjectReport</text><line style="stroke:#181818;stroke-width:0.5;" x1="338" x2="568" y1="39" y2="39"/><rect fill="none" height="6" style="stroke:#C82930;stroke-width:1.0;" width="6" x="345" y="47"/><text fill="#000000" font-family="sans-serif" font-size="14" lengthAdjust="spacing" textLength="206" x="357" y="55.9951">groups: Map&lt;String, Group&gt;</text><line style="stroke:#181818;stroke-width:0.5;" x1="338" x2="568" y1="63.2969" y2="63.2969"/></g><!--MD5=[41314a0efc36828092cff9ebad2fcafd]
class Group--><g id="elem_Group"><rect codeLine="4" fill="#F1F1F1" height="64.2969" id="Group" rx="2.5" ry="2.5" style="stroke:#181818;stroke-width:0.5;" width="250" x="328" y="131"/><ellipse cx="426.75" cy="147" fill="#ADD1B2" rx="11" ry="11" style="stroke:#181818;stroke-width:1.0;"/><path d="M429.0938,142.6719 C428.1563,142.2344 427.5625,142.0938 426.6875,142.0938 C424.0625,142.0938 422.0625,144.1719 422.0625,146.8906 L422.0625,148.0156 C422.0625,150.5938 424.1719,152.4844 427.0625,152.4844 C428.2813,152.4844 429.4375,152.1875 430.1875,151.6406 C430.7656,151.2344 431.0938,150.7813 431.0938,150.3906 C431.0938,149.9375 430.7031,149.5469 430.2344,149.5469 C430.0156,149.5469 429.8125,149.625 429.625,149.8125 C429.1719,150.2969 429.1719,150.2969 428.9844,150.3906 C428.5625,150.6563 427.875,150.7813 427.1094,150.7813 C425.0625,150.7813 423.7656,149.6875 423.7656,147.9844 L423.7656,146.8906 C423.7656,145.1094 425.0156,143.7969 426.75,143.7969 C427.3281,143.7969 427.9375,143.9531 428.4063,144.2031 C428.8906,144.4844 429.0625,144.7031 429.1563,145.1094 C429.2188,145.5156 429.25,145.6406 429.3906,145.7656 C429.5313,145.9063 429.7656,146.0156 429.9844,146.0156 C430.25,146.0156 430.5156,145.875 430.6875,145.6563 C430.7969,145.5 430.8281,145.3125 430.8281,144.8906 L430.8281,143.4688 C430.8281,143.0313 430.8125,142.9063 430.7188,142.75 C430.5625,142.4844 430.2813,142.3438 429.9844,142.3438 C429.6875,142.3438 429.4844,142.4375 429.2656,142.75 L429.0938,142.6719 Z " fill="#000000"/><text fill="#000000" font-family="sans-serif" font-size="14" lengthAdjust="spacing" textLength="44" x="447.25" y="151.8467">Group</text><line style="stroke:#181818;stroke-width:0.5;" x1="329" x2="577" y1="163" y2="163"/><rect fill="none" height="6" style="stroke:#C82930;stroke-width:1.0;" width="6" x="336" y="171"/><text fill="#000000" font-family="sans-serif" font-size="14" lengthAdjust="spacing" textLength="224" x="348" y="179.9951">fields: Map&lt;String, BaseInput&gt;</text><line style="stroke:#181818;stroke-width:0.5;" x1="329" x2="577" y1="187.2969" y2="187.2969"/></g><!--MD5=[dbc8686727f9c245d23b6d04ab358f14]
class BaseInput--><g id="elem_BaseInput"><rect codeLine="7" fill="#F1F1F1" height="96.8906" id="BaseInput" rx="2.5" ry="2.5" style="stroke:#181818;stroke-width:0.5;" width="247" x="329.5" y="255"/><ellipse cx="413.25" cy="271" fill="#A9DCDF" rx="11" ry="11" style="stroke:#181818;stroke-width:1.0;"/><path d="M415.3281,272.8125 L415.7188,273.7969 L415.3281,273.7969 C414.875,273.7969 414.7656,273.8125 414.6094,273.9219 C414.3594,274.0781 414.2031,274.3594 414.2031,274.6563 C414.2031,274.9219 414.3438,275.1719 414.5625,275.3281 C414.7031,275.4531 414.9063,275.5 415.3281,275.5 L417.6875,275.5 C418.0469,275.5 418.2656,275.4688 418.4063,275.375 C418.6563,275.2344 418.8125,274.9375 418.8125,274.6563 C418.8125,274.375 418.6719,274.125 418.4531,273.9688 C418.2813,273.8281 418.125,273.7969 417.6563,273.7969 L414.2656,265.5938 L410.5938,265.5938 C410.1406,265.5938 410.0156,265.6094 409.8594,265.7031 C409.6094,265.875 409.4531,266.1563 409.4531,266.4375 C409.4531,266.7188 409.5938,266.9688 409.8125,267.1406 C409.9844,267.25 410.1563,267.2813 410.5938,267.2813 L411.6719,267.2813 L409.0313,273.7969 C408.6094,273.7969 408.4531,273.8125 408.2969,273.9219 C408.0469,274.0781 407.8906,274.3594 407.8906,274.6563 C407.8906,275.2188 408.2656,275.5 409.0156,275.5 L411.2813,275.5 C411.6406,275.5 411.8594,275.4688 411.9844,275.375 C412.25,275.2344 412.3906,274.9375 412.3906,274.6563 C412.3906,274.375 412.2656,274.125 412.0469,273.9531 C411.875,273.8281 411.7344,273.7969 411.2813,273.7969 L410.8906,273.7969 L411.2813,272.8125 L415.3281,272.8125 Z M414.625,271.1094 L411.9531,271.1094 L413.2969,267.8438 L414.625,271.1094 Z " fill="#000000"/><text fill="#000000" font-family="sans-serif" font-size="14" font-style="italic" lengthAdjust="spacing" textLength="71" x="433.75" y="275.8467">BaseInput</text><line style="stroke:#181818;stroke-width:0.5;" x1="330.5" x2="575.5" y1="287" y2="287"/><rect fill="none" height="6" style="stroke:#C82930;stroke-width:1.0;" width="6" x="337.5" y="295"/><text fill="#000000" font-family="sans-serif" font-size="14" lengthAdjust="spacing" textLength="111" x="349.5" y="303.9951">type: Datatype</text><rect fill="none" height="6" style="stroke:#C82930;stroke-width:1.0;" width="6" x="337.5" y="311.2969"/><text fill="#000000" font-family="sans-serif" font-size="14" lengthAdjust="spacing" textLength="157" x="349.5" y="320.292">inputType: InputType</text><rect fill="none" height="6" style="stroke:#C82930;stroke-width:1.0;" width="6" x="337.5" y="327.5938"/><text fill="#000000" font-family="sans-serif" font-size="14" lengthAdjust="spacing" textLength="221" x="349.5" y="336.5889">modifiers: Set&lt;InputModifier&gt;</text><line style="stroke:#181818;stroke-width:0.5;" x1="330.5" x2="575.5" y1="343.8906" y2="343.8906"/></g><!--MD5=[689506c3d8737445d0b66272cb998244]
class SingleInput--><g id="elem_SingleInput"><rect codeLine="12" fill="#F1F1F1" height="64.2969" id="SingleInput" rx="2.5" ry="2.5" style="stroke:#181818;stroke-width:0.5;" width="176" x="7" y="420.5"/><ellipse cx="49.9" cy="436.5" fill="#ADD1B2" rx="11" ry="11" style="stroke:#181818;stroke-width:1.0;"/><path d="M52.2438,432.1719 C51.3063,431.7344 50.7125,431.5938 49.8375,431.5938 C47.2125,431.5938 45.2125,433.6719 45.2125,436.3906 L45.2125,437.5156 C45.2125,440.0938 47.3219,441.9844 50.2125,441.9844 C51.4313,441.9844 52.5875,441.6875 53.3375,441.1406 C53.9156,440.7344 54.2438,440.2813 54.2438,439.8906 C54.2438,439.4375 53.8531,439.0469 53.3844,439.0469 C53.1656,439.0469 52.9625,439.125 52.775,439.3125 C52.3219,439.7969 52.3219,439.7969 52.1344,439.8906 C51.7125,440.1563 51.025,440.2813 50.2594,440.2813 C48.2125,440.2813 46.9156,439.1875 46.9156,437.4844 L46.9156,436.3906 C46.9156,434.6094 48.1656,433.2969 49.9,433.2969 C50.4781,433.2969 51.0875,433.4531 51.5563,433.7031 C52.0406,433.9844 52.2125,434.2031 52.3063,434.6094 C52.3688,435.0156 52.4,435.1406 52.5406,435.2656 C52.6813,435.4063 52.9156,435.5156 53.1344,435.5156 C53.4,435.5156 53.6656,435.375 53.8375,435.1563 C53.9469,435 53.9781,434.8125 53.9781,434.3906 L53.9781,432.9688 C53.9781,432.5313 53.9625,432.4063 53.8688,432.25 C53.7125,431.9844 53.4313,431.8438 53.1344,431.8438 C52.8375,431.8438 52.6344,431.9375 52.4156,432.25 L52.2438,432.1719 Z " fill="#000000"/><text fill="#000000" font-family="sans-serif" font-size="14" lengthAdjust="spacing" textLength="82" x="70.1" y="441.3467">SingleInput</text><line style="stroke:#181818;stroke-width:0.5;" x1="8" x2="182" y1="452.5" y2="452.5"/><rect fill="none" height="6" style="stroke:#C82930;stroke-width:1.0;" width="6" x="15" y="460.5"/><text fill="#000000" font-family="sans-serif" font-size="14" lengthAdjust="spacing" textLength="150" x="27" y="469.4951">values: List&lt;Object&gt;</text><line style="stroke:#181818;stroke-width:0.5;" x1="8" x2="182" y1="476.7969" y2="476.7969"/></g><!--MD5=[543a8c81f64f84ca4561c2c0baa4a624]
class SelectSingleInput--><g id="elem_SelectSingleInput"><rect codeLine="15" fill="#F1F1F1" height="80.5938" id="SelectSingleInput" rx="2.5" ry="2.5" style="stroke:#181818;stroke-width:0.5;" width="232" x="218" y="412"/><ellipse cx="265.75" cy="428" fill="#ADD1B2" rx="11" ry="11" style="stroke:#181818;stroke-width:1.0;"/><path d="M268.0938,423.6719 C267.1563,423.2344 266.5625,423.0938 265.6875,423.0938 C263.0625,423.0938 261.0625,425.1719 261.0625,427.8906 L261.0625,429.0156 C261.0625,431.5938 263.1719,433.4844 266.0625,433.4844 C267.2813,433.4844 268.4375,433.1875 269.1875,432.6406 C269.7656,432.2344 270.0938,431.7813 270.0938,431.3906 C270.0938,430.9375 269.7031,430.5469 269.2344,430.5469 C269.0156,430.5469 268.8125,430.625 268.625,430.8125 C268.1719,431.2969 268.1719,431.2969 267.9844,431.3906 C267.5625,431.6563 266.875,431.7813 266.1094,431.7813 C264.0625,431.7813 262.7656,430.6875 262.7656,428.9844 L262.7656,427.8906 C262.7656,426.1094 264.0156,424.7969 265.75,424.7969 C266.3281,424.7969 266.9375,424.9531 267.4063,425.2031 C267.8906,425.4844 268.0625,425.7031 268.1563,426.1094 C268.2188,426.5156 268.25,426.6406 268.3906,426.7656 C268.5313,426.9063 268.7656,427.0156 268.9844,427.0156 C269.25,427.0156 269.5156,426.875 269.6875,426.6563 C269.7969,426.5 269.8281,426.3125 269.8281,425.8906 L269.8281,424.4688 C269.8281,424.0313 269.8125,423.9063 269.7188,423.75 C269.5625,423.4844 269.2813,423.3438 268.9844,423.3438 C268.6875,423.3438 268.4844,423.4375 268.2656,423.75 L268.0938,423.6719 Z " fill="#000000"/><text fill="#000000" font-family="sans-serif" font-size="14" lengthAdjust="spacing" textLength="128" x="286.25" y="432.8467">SelectSingleInput</text><line style="stroke:#181818;stroke-width:0.5;" x1="219" x2="449" y1="444" y2="444"/><rect fill="none" height="6" style="stroke:#C82930;stroke-width:1.0;" width="6" x="226" y="452"/><text fill="#000000" font-family="sans-serif" font-size="14" lengthAdjust="spacing" textLength="150" x="238" y="460.9951">values: List&lt;Object&gt;</text><rect fill="none" height="6" style="stroke:#C82930;stroke-width:1.0;" width="6" x="226" y="468.2969"/><text fill="#000000" font-family="sans-serif" font-size="14" lengthAdjust="spacing" textLength="206" x="238" y="477.292">allowedValues: List&lt;Object&gt;</text><line style="stroke:#181818;stroke-width:0.5;" x1="219" x2="449" y1="484.5938" y2="484.5938"/></g><!--MD5=[e43b71ee0969e1512636a37bda072c3a]
class MultiInput--><g id="elem_MultiInput"><rect codeLine="19" fill="#F1F1F1" height="64.2969" id="MultiInput" rx="2.5" ry="2.5" style="stroke:#181818;stroke-width:0.5;" width="176" x="485" y="420.5"/><ellipse cx="532.25" cy="436.5" fill="#ADD1B2" rx="11" ry="11" style="stroke:#181818;stroke-width:1.0;"/><path d="M534.5938,432.1719 C533.6563,431.7344 533.0625,431.5938 532.1875,431.5938 C529.5625,431.5938 527.5625,433.6719 527.5625,436.3906 L527.5625,437.5156 C527.5625,440.0938 529.6719,441.9844 532.5625,441.9844 C533.7813,441.9844 534.9375,441.6875 535.6875,441.1406 C536.2656,440.7344 536.5938,440.2813 536.5938,439.8906 C536.5938,439.4375 536.2031,439.0469 535.7344,439.0469 C535.5156,439.0469 535.3125,439.125 535.125,439.3125 C534.6719,439.7969 534.6719,439.7969 534.4844,439.8906 C534.0625,440.1563 533.375,440.2813 532.6094,440.2813 C530.5625,440.2813 529.2656,439.1875 529.2656,437.4844 L529.2656,436.3906 C529.2656,434.6094 530.5156,433.2969 532.25,433.2969 C532.8281,433.2969 533.4375,433.4531 533.9063,433.7031 C534.3906,433.9844 534.5625,434.2031 534.6563,434.6094 C534.7188,435.0156 534.75,435.1406 534.8906,435.2656 C535.0313,435.4063 535.2656,435.5156 535.4844,435.5156 C535.75,435.5156 536.0156,435.375 536.1875,435.1563 C536.2969,435 536.3281,434.8125 536.3281,434.3906 L536.3281,432.9688 C536.3281,432.5313 536.3125,432.4063 536.2188,432.25 C536.0625,431.9844 535.7813,431.8438 535.4844,431.8438 C535.1875,431.8438 534.9844,431.9375 534.7656,432.25 L534.5938,432.1719 Z " fill="#000000"/><text fill="#000000" font-family="sans-serif" font-size="14" lengthAdjust="spacing" textLength="73" x="552.75" y="441.3467">MultiInput</text><line style="stroke:#181818;stroke-width:0.5;" x1="486" x2="660" y1="452.5" y2="452.5"/><rect fill="none" height="6" style="stroke:#C82930;stroke-width:1.0;" width="6" x="493" y="460.5"/><text fill="#000000" font-family="sans-serif" font-size="14" lengthAdjust="spacing" textLength="150" x="505" y="469.4951">values: List&lt;Object&gt;</text><line style="stroke:#181818;stroke-width:0.5;" x1="486" x2="660" y1="476.7969" y2="476.7969"/></g><!--MD5=[f1a5928725d2568b9e86678e135bae2d]
class SelectMultiInput--><g id="elem_SelectMultiInput"><rect codeLine="22" fill="#F1F1F1" height="80.5938" id="SelectMultiInput" rx="2.5" ry="2.5" style="stroke:#181818;stroke-width:0.5;" width="232" x="696" y="412"/><ellipse cx="748.25" cy="428" fill="#ADD1B2" rx="11" ry="11" style="stroke:#181818;stroke-width:1.0;"/><path d="M750.5938,423.6719 C749.6563,423.2344 749.0625,423.0938 748.1875,423.0938 C745.5625,423.0938 743.5625,425.1719 743.5625,427.8906 L743.5625,429.0156 C743.5625,431.5938 745.6719,433.4844 748.5625,433.4844 C749.7813,433.4844 750.9375,433.1875 751.6875,432.6406 C752.2656,432.2344 752.5938,431.7813 752.5938,431.3906 C752.5938,430.9375 752.2031,430.5469 751.7344,430.5469 C751.5156,430.5469 751.3125,430.625 751.125,430.8125 C750.6719,431.2969 750.6719,431.2969 750.4844,431.3906 C750.0625,431.6563 749.375,431.7813 748.6094,431.7813 C746.5625,431.7813 745.2656,430.6875 745.2656,428.9844 L745.2656,427.8906 C745.2656,426.1094 746.5156,424.7969 748.25,424.7969 C748.8281,424.7969 749.4375,424.9531 749.9063,425.2031 C750.3906,425.4844 750.5625,425.7031 750.6563,426.1094 C750.7188,426.5156 750.75,426.6406 750.8906,426.7656 C751.0313,426.9063 751.2656,427.0156 751.4844,427.0156 C751.75,427.0156 752.0156,426.875 752.1875,426.6563 C752.2969,426.5 752.3281,426.3125 752.3281,425.8906 L752.3281,424.4688 C752.3281,424.0313 752.3125,423.9063 752.2188,423.75 C752.0625,423.4844 751.7813,423.3438 751.4844,423.3438 C751.1875,423.3438 750.9844,423.4375 750.7656,423.75 L750.5938,423.6719 Z " fill="#000000"/><text fill="#000000" font-family="sans-serif" font-size="14" lengthAdjust="spacing" textLength="119" x="768.75" y="432.8467">SelectMultiInput</text><line style="stroke:#181818;stroke-width:0.5;" x1="697" x2="927" y1="444" y2="444"/><rect fill="none" height="6" style="stroke:#C82930;stroke-width:1.0;" width="6" x="704" y="452"/><text fill="#000000" font-family="sans-serif" font-size="14" lengthAdjust="spacing" textLength="150" x="716" y="460.9951">values: List&lt;Object&gt;</text><rect fill="none" height="6" style="stroke:#C82930;stroke-width:1.0;" width="6" x="704" y="468.2969"/><text fill="#000000" font-family="sans-serif" font-size="14" lengthAdjust="spacing" textLength="206" x="716" y="477.292">allowedValues: List&lt;Object&gt;</text><line style="stroke:#181818;stroke-width:0.5;" x1="697" x2="927" y1="484.5938" y2="484.5938"/></g><!--MD5=[b5d5783cf880286e8aa4272b5a950d93]
reverse link BaseInput to SingleInput--><g id="link_BaseInput_SingleInput"><path codeLine="27" d="M318.709,359.642 C268.628,380.206 213.558,402.8183 170.589,420.4621 " fill="none" id="BaseInput-backto-SingleInput" style="stroke:#181818;stroke-width:1.0;"/><polygon fill="none" points="316.102,353.145,337.262,352.024,321.42,366.096,316.102,353.145" style="stroke:#181818;stroke-width:1.0;"/></g><!--MD5=[1deddbc3983a297f04bf6421c05dc97c]
reverse link BaseInput to SelectSingleInput--><g id="link_BaseInput_SelectSingleInput"><path codeLine="28" d="M401.557,368.047 C389.504,382.936 377.001,398.381 366.077,411.8755 " fill="none" id="BaseInput-backto-SelectSingleInput" style="stroke:#181818;stroke-width:1.0;"/><polygon fill="none" points="396.339,363.367,414.364,352.227,407.221,372.176,396.339,363.367" style="stroke:#181818;stroke-width:1.0;"/></g><!--MD5=[eeddcf5ef295c42c9821baf2ec4467f6]
reverse link BaseInput to MultiInput--><g id="link_BaseInput_MultiInput"><path codeLine="29" d="M504.696,367.828 C519.496,385.957 534.982,404.9283 547.46,420.214 " fill="none" id="BaseInput-backto-MultiInput" style="stroke:#181818;stroke-width:1.0;"/><polygon fill="none" points="499.185,372.147,491.961,352.227,510.031,363.293,499.185,372.147" style="stroke:#181818;stroke-width:1.0;"/></g><!--MD5=[a179fff2ff22ca88d5fbc2115de79456]
reverse link BaseInput to SelectMultiInput--><g id="link_BaseInput_SelectMultiInput"><path codeLine="30" d="M587.624,359.624 C630.04,376.993 676.028,395.8235 715.263,411.8889 " fill="none" id="BaseInput-backto-SelectMultiInput" style="stroke:#181818;stroke-width:1.0;"/><polygon fill="none" points="584.917,366.08,569.061,352.024,590.222,353.124,584.917,366.08" style="stroke:#181818;stroke-width:1.0;"/></g><!--MD5=[0a204be54f171e365b0e00ec0cd0f85b]
link ProjectReport to Group--><g id="link_ProjectReport_Group"><path codeLine="32" d="M453,71.101 C453,89.457 453,112.61 453,130.955 " fill="none" id="ProjectReport-Group" style="stroke:#181818;stroke-width:1.0;"/><text fill="#000000" font-family="sans-serif" font-size="13" lengthAdjust="spacing" textLength="8" x="444.175" y="91.3187">1</text><text fill="#000000" font-family="sans-serif" font-size="13" lengthAdjust="spacing" textLength="23" x="427.6281" y="119.8488">1..*</text></g><!--MD5=[48db203b5e5c1765fe386771e89e7e20]
link Group to BaseInput--><g id="link_Group_BaseInput"><path codeLine="33" d="M453,195.082 C453,212.708 453,235.131 453,254.926 " fill="none" id="Group-BaseInput" style="stroke:#181818;stroke-width:1.0;"/><text fill="#000000" font-family="sans-serif" font-size="13" lengthAdjust="spacing" textLength="8" x="444.175" y="215.2958">1</text><text fill="#000000" font-family="sans-serif" font-size="13" lengthAdjust="spacing" textLength="23" x="428.3109" y="243.7748">0..*</text></g><!--MD5=[8daefb4b238ae56eaccfe20b948c61a5]
@startuml
Class ProjectReport{
- groups: Map<String, Group>     
}
Class Group{
- fields: Map<String, BaseInput>     
}
abstract Class BaseInput{
- type: Datatype     
- inputType: InputType
- modifiers: Set<InputModifier>
}
Class SingleInput{  
- values: List<Object>     
}
Class SelectSingleInput{
- values: List<Object>  
- allowedValues: List<Object>
}
Class MultiInput{ 
- values: List<Object>       
}
Class SelectMultiInput{
- values: List<Object>  
- allowedValues: List<Object>     
}

BaseInput <|- - SingleInput
BaseInput <|- - SelectSingleInput
BaseInput <|- - MultiInput
BaseInput <|- - SelectMultiInput

ProjectReport "1" - - "1..*" Group
Group "1" - - "0..*" BaseInput
@enduml

PlantUML version 1.2022.6beta5(Unknown compile time)
(GPL source distribution)
Java Runtime: Java(TM) SE Runtime Environment
JVM: Java HotSpot(TM) 64-Bit Server VM
Default Encoding: UTF-8
Language: en
Country: US
--></g></svg>